<?xml version="1.0" encoding="iso-8859-1"?>
<!-- Generator: Adobe Illustrator 19.0.0, SVG Export Plug-In . SVG Version: 6.00 Build 0)  -->
<svg xmlns="http://www.w3.org/2000/svg" xmlns:xlink="http://www.w3.org/1999/xlink" version="1.1" id="Layer_1" x="0px" y="0px" viewBox="0 0 511.999 511.999" style="enable-background:new 0 0 511.999 511.999;" xml:space="preserve">
<g>
	<g>
		<path d="M495.284,378.425H300.509V361.73c0-5.853-1.018-11.469-2.872-16.695c4.984,0,184.566,0,186.516,0    c9.22,0,16.695-7.475,16.695-16.695s-7.475-16.695-16.695-16.695H467.04c-6.007-120.541-77.26-210.544-188-265.911l-11.921-5.961    V17.044C267.373,5.24,255.622-3.36,243.953,1.308c-0.012,0.006-0.026,0.01-0.038,0.016l-11.633,4.652    C136.669,44.222,73.704,143.642,67.32,244.865H50.085c-9.22,0-16.695,7.475-16.695,16.695c0,9.22,7.475,16.695,16.695,16.695    c6.047,0,174.083,0,183.645,0v33.39H116.865c-27.617,0-50.085,22.468-50.085,50.085v16.695c-36.822,0-66.78,29.957-66.78,66.78    s29.957,66.78,66.78,66.78h325.985c27.973,0,53.938-13.896,69.454-37.171l46.955-70.433    C516.567,393.292,508.584,378.425,495.284,378.425z M267.119,77.121c73.711,37.578,159.51,108.186,166.493,234.524H267.119V77.121    z M100.77,244.865c6.184-86.393,59.638-168.284,132.96-203.099v203.099H100.77z M100.17,361.73    c0-9.206,7.489-16.695,16.695-16.695h133.56c9.206,0,16.695,7.489,16.695,16.695v16.695H100.17V361.73z M434.437,456.292    c-9.31,13.965-24.889,22.302-41.673,22.302H66.78c-18.411,0-33.39-14.979-33.39-33.39s14.979-33.39,33.39-33.39    c1.905,0,239.418,0,244.859,0v16.695c0,9.22,7.475,16.695,16.695,16.695c9.22,0,16.695-7.475,16.695-16.695v-16.695h33.39v16.695    c0,9.22,7.475,16.695,16.695,16.695c9.22,0,16.695-7.475,16.695-16.695v-16.695h52.28L434.437,456.292z"/>
	</g>
</g>
<g>
</g>
<g>
</g>
<g>
</g>
<g>
</g>
<g>
</g>
<g>
</g>
<g>
</g>
<g>
</g>
<g>
</g>
<g>
</g>
<g>
</g>
<g>
</g>
<g>
</g>
<g>
</g>
<g>
</g>
</svg>
