<?xml version="1.0" encoding="iso-8859-1"?>
<!-- Generator: Adobe Illustrator 19.0.0, SVG Export Plug-In . SVG Version: 6.00 Build 0)  -->
<svg xmlns="http://www.w3.org/2000/svg" xmlns:xlink="http://www.w3.org/1999/xlink" version="1.1" id="Layer_1" x="0px" y="0px" viewBox="0 0 512.001 512.001" style="enable-background:new 0 0 512.001 512.001;" xml:space="preserve">
<g>
	<g>
		<path d="M165.582,370.056l-23.643-23.643c-6.528-6.528-17.114-6.528-23.643,0c-6.529,6.528-6.529,17.114,0,23.643l23.643,23.643    c6.529,6.529,17.114,6.529,23.643,0C172.111,387.171,172.111,376.585,165.582,370.056z"/>
	</g>
</g>
<g>
	<g>
		<path d="M507.106,52.268L459.819,4.984c-6.528-6.528-17.114-6.528-23.643,0l-35.465,35.465L388.89,28.627    c-6.528-6.528-17.114-6.528-23.643,0c-6.529,6.528-6.529,17.114,0,23.643l11.822,11.822l-23.643,23.643l-11.821-11.821    c-6.528-6.528-17.114-6.528-23.643,0c-6.529,6.528-6.529,17.114,0,23.643l11.821,11.821l-69.583,69.583L123.11,43.868    c-32.591-32.591-85.622-32.594-118.214,0c-6.529,6.528-6.529,17.114,0,23.643l137.891,137.892    c-4.418,3.308-8.657,6.96-12.67,10.974c-3.135,3.135-4.897,7.387-4.897,11.821c0,4.434,1.761,8.687,4.897,11.821    c4.882,4.882,2.299,21.345-11.821,35.465c-14.123,14.121-30.585,16.701-35.465,11.821c-6.528-6.528-17.114-6.528-23.643,0    l-23.643,23.643C-6.405,352.897-9.638,418.253,24.563,463.788l-12.659,12.659c-6.529,6.528-6.529,17.114,0,23.643    c6.529,6.529,17.114,6.529,23.643,0l12.67-12.67c45.888,34.358,111.278,30.578,152.83-10.974l23.643-23.643    c6.529-6.528,6.529-17.114,0-23.643c-4.819-4.819-2.611-21.031,11.821-35.465c14.433-14.43,30.644-16.641,35.465-11.821    c6.528,6.528,17.114,6.528,23.643,0c4.013-4.013,7.666-8.252,10.974-12.669l29.302,29.302c0.001,0.001,0.002,0.002,0.003,0.003    c0.001,0.001,0.002,0.002,0.003,0.003l108.501,108.5c6.529,6.529,17.114,6.529,23.643,0c6.529-6.528,6.529-17.114,0-23.643    l-50.571-50.571c9.003-13.56,13.836-29.464,13.836-46.111c0-22.328-8.695-43.32-24.483-59.107l-75.696-75.696l69.582-69.583    l11.822,11.822c6.529,6.529,17.114,6.529,23.643,0c6.529-6.528,6.529-17.114,0-23.643l-11.822-11.822l23.644-23.644l11.822,11.822    c6.529,6.529,17.114,6.529,23.643,0c6.529-6.528,6.529-17.114,0-23.643l-11.822-11.822l35.465-35.465    C513.63,69.389,513.635,58.795,507.106,52.268z M64.004,79.334L42.386,57.715c13.63-6.494,29.601-6.486,43.228,0.007    L64.004,79.334z M87.647,102.977l23.643-23.644L214.127,182.17c-13.724-0.146-27.469,2.098-40.549,6.737L87.647,102.977z     M280.216,348.652c-20.144-6.945-46.723,0.778-67.348,21.404c-20.963,20.963-28.597,48.075-21.049,68.336l-14.415,14.415    c-28.544,28.544-72.766,32.086-105.204,10.633l34.275-34.274c6.529-6.528,6.529-17.114,0-23.643    c-6.528-6.528-17.114-6.528-23.643,0l-34.284,34.284c-21.34-32.139-18.21-76.364,10.641-105.215l14.415-14.414    c23.198,8.641,50.407-3.121,68.336-21.05c17.763-17.761,29.248-44.382,21.368-67.321c28.215-20.799,66.636-21.588,95.645-2.405    l-81.547,81.547c-6.53,6.528-6.53,17.114-0.001,23.642c6.529,6.529,17.114,6.529,23.643,0l81.547-81.547    C301.77,282.039,300.99,320.44,280.216,348.652z M397.873,386.691c0,7.612-1.684,14.966-4.876,21.634l-21.635-21.635    l21.631-21.631C396.183,371.729,397.873,379.079,397.873,386.691z M371.361,339.405l-23.644,23.644l-24.631-24.631    c4.64-13.08,6.885-26.825,6.737-40.55L371.361,339.405z M307.488,228.246l-23.644-23.644l69.582-69.583l23.644,23.644    L307.488,228.246z M400.712,135.02l-23.644-23.644l23.644-23.643l23.644,23.643L400.712,135.02z M447.998,87.734l-23.644-23.643    l23.643-23.644l23.644,23.643L447.998,87.734z"/>
	</g>
</g>
<g>
</g>
<g>
</g>
<g>
</g>
<g>
</g>
<g>
</g>
<g>
</g>
<g>
</g>
<g>
</g>
<g>
</g>
<g>
</g>
<g>
</g>
<g>
</g>
<g>
</g>
<g>
</g>
<g>
</g>
</svg>
