<?xml version="1.0" encoding="iso-8859-1"?>
<!-- Generator: Adobe Illustrator 19.0.0, SVG Export Plug-In . SVG Version: 6.00 Build 0)  -->
<svg xmlns="http://www.w3.org/2000/svg" xmlns:xlink="http://www.w3.org/1999/xlink" version="1.1" id="Layer_1" x="0px" y="0px" viewBox="0 0 512 512" style="enable-background:new 0 0 512 512;" xml:space="preserve">
<g>
	<g>
		<path d="M401.648,114.15C385.424,47.55,325.38,0,255.998,0c-69.383,0-129.427,47.55-145.649,114.151    c-52.827,34.047-49.863,111.674,4.789,142.234l79.623,213.668c0.033,0.09,0.069,0.18,0.104,0.269    C204.803,495.641,228.8,512,255.999,512c27.2,0,51.195-16.36,61.133-41.678c0.035-0.089,0.07-0.179,0.104-0.269l79.624-213.669    C451.481,225.841,454.511,148.222,401.648,114.15z M154.771,267.113c0.351,0.004,0.701,0.017,1.053,0.017    c18.084,0,35.643-6.078,50.087-17.045c14.444,10.968,32.003,17.045,50.087,17.045c6.389,0,12.708-0.774,18.852-2.238    l-60.569,161.917L154.771,267.113z M286,458.241c-4.913,12.377-16.676,20.368-30.002,20.368c-8.475,0-16.309-3.241-22.16-8.777    l80.201-214.397c12.946,7.701,27.783,11.876,43.186,11.679L286,458.241z M380.199,227.448c-0.085,0.047-0.169,0.095-0.255,0.143    c-16.826,9.615-41.679,8.978-59.365-9.116c-5.75-8.803-19.263-10.922-27.023-2.115c-9.873,11.207-23.211,17.38-37.559,17.38    c-14.347,0-27.686-6.173-37.559-17.38c-6.646-7.544-18.413-7.541-25.057,0c-15.322,17.394-39.568,22.947-61.587,11.09    c-34.774-19.073-34.943-69.215,0.961-87.727c4.568-2.355,7.797-6.685,8.752-11.736c10.37-54.813,58.519-94.596,114.49-94.596    c55.969,0,104.119,39.783,114.489,94.593c0.955,5.051,4.184,9.381,8.752,11.736C415.108,158.215,415.012,208.356,380.199,227.448z    "/>
	</g>
</g>
<g>
</g>
<g>
</g>
<g>
</g>
<g>
</g>
<g>
</g>
<g>
</g>
<g>
</g>
<g>
</g>
<g>
</g>
<g>
</g>
<g>
</g>
<g>
</g>
<g>
</g>
<g>
</g>
<g>
</g>
</svg>
