<?xml version="1.0" encoding="iso-8859-1"?>
<!-- Generator: Adobe Illustrator 19.0.0, SVG Export Plug-In . SVG Version: 6.00 Build 0)  -->
<svg xmlns="http://www.w3.org/2000/svg" xmlns:xlink="http://www.w3.org/1999/xlink" version="1.1" id="Layer_1" x="0px" y="0px" viewBox="0 0 511.998 511.998" style="enable-background:new 0 0 511.998 511.998;" xml:space="preserve">
<g>
	<g>
		<path d="M502.956,457.09c-34.205-17.825-75.03-14.684-106.54,8.19c-24.461,17.761-56.075,17.761-80.536,0    c-36.191-26.273-83.573-26.27-119.761,0c-24.461,17.761-56.075,17.759-80.536,0c-31.512-22.877-72.337-26.011-106.54-8.19    c-8.175,4.261-11.349,14.341-7.089,22.516c4.26,8.174,14.339,11.348,22.516,7.089c23.252-12.12,49.982-10.025,71.502,5.599    c36.191,26.273,83.573,26.27,119.761,0c24.461-17.761,56.075-17.761,80.536,0c36.191,26.273,83.573,26.27,119.761,0    c21.519-15.622,48.25-17.717,71.502-5.599c8.177,4.26,18.256,1.087,22.516-7.089C514.305,471.43,511.131,461.351,502.956,457.09z"/>
	</g>
</g>
<g>
	<g>
		<path d="M499.691,134.133L339.456,89.829V50.073c0-6.323-3.572-12.102-9.227-14.929L263.463,1.762    c-4.699-2.349-10.23-2.349-14.929,0l-66.766,33.383c-5.655,2.826-9.227,8.606-9.227,14.929V89.83L12.307,134.133    c-7.234,2-12.244,8.582-12.244,16.088v254.614c0,0.019,0,0.038,0,0.058v2.853c0,16.454,21.332,22.871,30.506,9.367    c22.615-9.191,46.556-5.266,65.4,8.416c36.191,26.273,83.573,26.27,119.761,0c24.461-17.761,56.075-17.761,80.536,0    c36.191,26.273,83.573,26.27,119.761,0c21.351-15.5,48.081-17.805,71.502-5.599c6.86,3.57,15.385,1.966,20.447-4.025    c0.05-0.059,0.106-0.112,0.155-0.172c0.181-0.221,0.346-0.46,0.517-0.692c2.297-3.1,3.336-6.654,3.286-10.206V150.222    C511.935,142.716,506.925,136.134,499.691,134.133z M396.416,398.514c-24.461,17.761-56.075,17.761-80.536,0    c-36.191-26.273-83.573-26.27-119.761,0c-24.461,17.761-56.075,17.759-80.536,0c-2.628-1.908-5.327-3.667-8.076-5.299    c8.432-13.798,23.874-26.618,44.83-36.976c29.241-14.453,66.056-22.412,103.663-22.412s74.423,7.96,103.663,22.413    c20.956,10.358,36.396,23.178,44.83,36.976C401.742,394.849,399.044,396.606,396.416,398.514z M478.551,381.363    c-14.089-3.199-28.617-3.303-42.669-0.378c-11.298-21.365-32.552-40.4-61.429-54.673c-33.75-16.681-75.817-25.867-118.454-25.867    s-84.704,9.187-118.454,25.868c-28.877,14.273-50.132,33.308-61.429,54.674c-14.052-2.924-28.58-2.82-42.668,0.378v-84.943h-0.001    c4.314-1.204,206.475-57.62,222.552-62.107c16.077,4.487,218.233,60.901,222.552,62.107V381.363z M100.212,243.134v-26.147    c0-9.204,7.488-16.691,16.691-16.691c9.204,0,16.691,7.487,16.691,16.691v16.831L100.212,243.134z M239.307,204.316v-20.712    c0-9.204,7.488-16.691,16.691-16.691c9.204,0,16.691,7.487,16.691,16.691v20.712l-12.205-3.406c-2.931-0.818-6.038-0.819-8.973,0    L239.307,204.316z M378.402,233.818v-16.831c0-9.204,7.488-16.691,16.691-16.691c9.204,0,16.691,7.487,16.691,16.691v26.147    L378.402,233.818z M478.551,261.765l-33.383-9.316v-35.461c0-27.611-22.463-50.074-50.074-50.074s-50.074,22.463-50.074,50.074    v7.513l-38.947-10.869v-30.027c0-27.611-22.463-50.074-50.074-50.074c-27.611,0-50.074,22.463-50.074,50.074v30.028    l-38.947,10.869v-7.514c0-27.611-22.463-50.074-50.074-50.074c-27.611,0-50.074,22.463-50.074,50.074v35.463l-33.383,9.316    v-98.842l160.234-44.305c7.234-2.001,12.244-8.583,12.244-16.088V60.389l50.074-25.037l50.074,25.037v42.142    c0,7.506,5.01,14.088,12.244,16.088l160.234,44.303V261.765z"/>
	</g>
</g>
<g>
</g>
<g>
</g>
<g>
</g>
<g>
</g>
<g>
</g>
<g>
</g>
<g>
</g>
<g>
</g>
<g>
</g>
<g>
</g>
<g>
</g>
<g>
</g>
<g>
</g>
<g>
</g>
<g>
</g>
</svg>
