<?xml version="1.0" encoding="iso-8859-1"?>
<!-- Generator: Adobe Illustrator 19.0.0, SVG Export Plug-In . SVG Version: 6.00 Build 0)  -->
<svg xmlns="http://www.w3.org/2000/svg" xmlns:xlink="http://www.w3.org/1999/xlink" version="1.1" id="Layer_1" x="0px" y="0px" viewBox="0 0 512 512" style="enable-background:new 0 0 512 512;" xml:space="preserve">
<g>
	<g>
		<path d="M510.36,438.123c-3.979-8.317-13.944-11.834-22.266-7.854c-23.278,11.139-51.087,9.16-72.575-5.164    c-36.052-24.035-82.642-24.035-118.694,0c-24.802,16.533-56.849,16.533-81.65,0c-36.052-24.035-82.642-24.035-118.694,0    c-21.487,14.325-49.296,16.305-72.575,5.164c-8.317-3.98-18.286-0.463-22.266,7.854c-3.98,8.318-0.464,18.286,7.854,22.266    c33.846,16.197,74.275,13.323,105.509-7.501c24.802-16.533,56.849-16.533,81.651,0c18.025,12.017,38.687,18.025,59.347,18.025    s41.321-6.008,59.347-18.025c24.8-16.534,56.85-16.535,81.651,0c31.235,20.823,71.664,23.696,105.509,7.501    C510.825,456.409,514.341,446.441,510.36,438.123z"/>
	</g>
</g>
<g>
	<g>
		<path d="M510.36,371.342c-3.979-8.317-13.944-11.834-22.266-7.854c-23.01,11.011-50.442,9.197-71.825-4.681    c11.706-15.635,19.371-33.992,22.177-53.373h17.897c27.617,0,50.086-22.469,50.086-50.086V155.175    c0-9.22-7.475-16.473-16.695-16.473h-90.797c-23.026,0-43.008,15.379-48.59,37.716l-20.745,82.977    c-1.28,5.121-4.831,9.18-9.42,11.215l-3.755-10.317c-3.15-8.655-12.74-13.135-21.399-9.978l-15.689,5.711l-74.231-203.95    c-3.155-8.665-12.735-13.135-21.399-9.978c-8.665,3.153-13.133,12.734-9.979,21.399l74.232,203.952l-12.624,4.817H134.027    c-8.194,0-15.12-6.089-16.468-14.173l-12.045-72.271c-1.341-8.051-8.307-13.728-16.468-13.728H22.264    c-9.22,0-16.695,7.253-16.695,16.473v66.782c0,29.07,8.32,57.281,24.057,81.583c8.229,12.705,18.268,24.002,29.73,33.609    c-12.061,0.612-24.277-1.704-35.451-7.051c-8.315-3.981-18.285-0.464-22.265,7.852c-3.98,8.318-0.464,18.286,7.854,22.266    c31.097,14.88,71.853,14.937,105.509-7.501c24.802-16.533,56.849-16.533,81.651,0c18.025,12.017,38.687,18.025,59.347,18.025    s41.321-6.008,59.347-18.025c24.8-16.534,56.85-16.535,81.651,0c31.235,20.823,71.664,23.697,105.509,7.501    C510.825,389.628,514.341,379.659,510.36,371.342z M215.175,358.324c-35.433-23.622-81.038-24.01-116.821-1.199    c-36.346-20.597-59.394-59.635-59.394-101.777v-50.086h35.943l9.72,58.32c4.043,24.251,24.82,41.852,49.405,41.852h92.228    l18.883,51.877c1.766,4.853,4.228,9.323,7.275,13.314C239.408,369.988,226.531,365.895,215.175,358.324z M297.913,355.869    c-8.668,3.157-18.242-1.307-21.399-9.978l-17.132-47.065l31.377-11.421l17.13,47.067    C311.047,343.14,306.585,352.712,297.913,355.869z M406.258,288.738c0,20.57-7.641,40.351-21.203,55.567    c-13.953-3.929-28.499-4.956-42.765-3.082c0.126-6.112-0.868-12.257-3.022-18.174l-7.654-21.031    c14.789-5.76,26.346-18.381,30.382-34.524l20.746-82.978c1.861-7.446,8.52-12.646,16.197-12.646h74.102v33.586H428.52    c-9.22,0-16.695,7.475-16.695,16.695c0,9.22,7.475,16.584,16.695,16.584h44.521v16.612c0,9.206-7.49,16.918-16.695,16.918h-33.391    C413.733,272.266,406.258,279.518,406.258,288.738z"/>
	</g>
</g>
<g>
</g>
<g>
</g>
<g>
</g>
<g>
</g>
<g>
</g>
<g>
</g>
<g>
</g>
<g>
</g>
<g>
</g>
<g>
</g>
<g>
</g>
<g>
</g>
<g>
</g>
<g>
</g>
<g>
</g>
</svg>
