<?xml version="1.0" encoding="iso-8859-1"?>
<!-- Generator: Adobe Illustrator 19.0.0, SVG Export Plug-In . SVG Version: 6.00 Build 0)  -->
<svg xmlns="http://www.w3.org/2000/svg" xmlns:xlink="http://www.w3.org/1999/xlink" version="1.1" id="Layer_1" x="0px" y="0px" viewBox="0 0 512 512" style="enable-background:new 0 0 512 512;" xml:space="preserve">
<g>
	<g>
		<path d="M489.739,478.609h-16.766c-2.529-99.984-73.012-183.374-166.886-205.633v-22.54c0-27.618-22.469-50.087-50.087-50.087    c-27.618,0-50.087,22.469-50.087,50.087v22.54c-93.874,22.26-164.356,105.649-166.886,205.633H22.261    c-9.222,0-16.696,7.475-16.696,16.696c0,9.22,7.475,16.696,16.696,16.696h467.477c9.22,0,16.696-7.475,16.696-16.696    C506.434,486.084,498.959,478.609,489.739,478.609z M239.304,250.435c0-9.206,7.49-16.696,16.696-16.696    c9.206,0,16.696,7.49,16.696,16.696v17.331c-5.511-0.421-11.078-0.636-16.696-0.636c-5.617,0-11.185,0.215-16.696,0.636V250.435z     M72.44,478.609c2.954-98.701,84.156-178.087,183.56-178.087c99.404,0,180.607,79.385,183.559,178.087H72.44z"/>
	</g>
</g>
<g>
	<g>
		<path d="M165.087,136.37c-13.925-9.284-13.955-29.695,0-38.999c7.673-5.116,9.746-15.481,4.63-23.152    c-5.116-7.672-15.481-9.744-23.152-4.631c-33.734,22.489-33.704,72.097,0,94.566c13.926,9.284,13.956,29.695,0,38.999    c-7.673,5.115-9.746,15.481-4.63,23.152c5.119,7.679,15.488,9.741,23.152,4.631C198.821,208.447,198.791,158.839,165.087,136.37z"/>
	</g>
</g>
<g>
	<g>
		<path d="M365.434,136.37c-13.925-9.284-13.955-29.695,0-38.999c7.673-5.116,9.746-15.481,4.63-23.152    c-5.116-7.672-15.481-9.744-23.152-4.631c-33.734,22.489-33.704,72.097,0,94.566c13.926,9.284,13.955,29.695,0,38.999    c-7.673,5.115-9.746,15.481-4.63,23.152c5.12,7.679,15.488,9.741,23.152,4.631C399.168,208.447,399.138,158.839,365.434,136.37z"/>
	</g>
</g>
<g>
	<g>
		<path d="M265.261,69.587c-13.925-9.284-13.955-29.695,0-38.999c7.673-5.115,9.746-15.481,4.63-23.152    c-5.114-7.672-15.48-9.745-23.152-4.631c-33.734,22.489-33.704,72.097,0,94.566c13.926,9.284,13.956,29.695,0,38.999    c-7.673,5.116-9.746,15.481-4.63,23.152c5.119,7.679,15.488,9.741,23.152,4.631C298.995,141.665,298.965,92.056,265.261,69.587z"/>
	</g>
</g>
<g>
	<g>
		<path d="M256,333.914c-53.475,0-103.345,28.783-130.149,75.118c-4.616,7.982-1.889,18.195,6.093,22.812    c7.985,4.619,18.196,1.887,22.812-6.092C175.61,389.7,214.405,367.305,256,367.305c9.22,0,16.696-7.475,16.696-16.696    C272.696,341.389,265.22,333.914,256,333.914z"/>
	</g>
</g>
<g>
</g>
<g>
</g>
<g>
</g>
<g>
</g>
<g>
</g>
<g>
</g>
<g>
</g>
<g>
</g>
<g>
</g>
<g>
</g>
<g>
</g>
<g>
</g>
<g>
</g>
<g>
</g>
<g>
</g>
</svg>
