<?xml version="1.0" encoding="iso-8859-1"?>
<!-- Generator: Adobe Illustrator 19.0.0, SVG Export Plug-In . SVG Version: 6.00 Build 0)  -->
<svg xmlns="http://www.w3.org/2000/svg" xmlns:xlink="http://www.w3.org/1999/xlink" version="1.1" id="Layer_1" x="0px" y="0px" viewBox="0 0 511.999 511.999" style="enable-background:new 0 0 511.999 511.999;" xml:space="preserve">
<g>
	<g>
		<path d="M401.064,37.27c-19.947-5.508-40.022-5.174-58.774,0.868C320.903,14.718,290.136,0,255.996,0    c-34.14,0-64.908,14.718-86.295,38.138c-18.754-6.043-38.827-6.377-58.773-0.868c-64.01,17.677-90.909,92.511-57.749,147.775    c12.058,20.094,30.878,35.265,52.666,42.981c0.002,49.317,0.002,176.095,0.002,233.997c0,27.557,22.358,49.975,49.976,49.975    h200.348c27.618,0.001,50.087-22.468,50.087-50.086V228.018c21.786-7.71,40.493-22.873,52.551-42.963    C492.058,129.661,464.923,54.904,401.064,37.27z M372.976,461.913c0,9.206-7.601,16.696-16.807,16.696H155.822    c-9.206,0-16.696-7.44-16.696-16.583c0-13.574,0-30.94,0-50.199h233.85V461.913z M430.177,167.869    c-9.652,16.079-25.666,27.424-43.934,31.126c-7.782,1.579-13.266,8.422-13.266,16.364v163.075h-33.503v-50.087    c0-9.22-7.475-16.696-16.696-16.696s-16.584,7.475-16.584,16.696v50.087h-33.503v-83.478c0-9.22-7.475-16.696-16.696-16.696    c-9.22,0-16.584,7.475-16.584,16.696v83.478h-33.503v-50.087c0-9.22-7.475-16.696-16.696-16.696s-16.584,7.475-16.584,16.696    v50.087h-33.503c0-65.542-0.001-139.602-0.003-163.063c-0.001-7.939-5.592-14.78-13.374-16.361    c-18.273-3.71-34.287-15.062-43.939-31.145c-21.879-36.462-4.45-86.685,38.006-98.409c10.201-2.816,20.404-3.399,30.191-1.798    c-6.977,14.966-10.882,31.639-10.882,49.21c0,9.22,7.475,16.696,16.696,16.696s16.696-7.475,16.696-16.696    c0-46.03,37.448-83.478,83.478-83.478s83.478,37.448,83.478,83.478c0,9.22,7.475,16.696,16.696,16.696s16.696-7.475,16.696-16.696    c0-17.572-3.906-34.245-10.882-49.211c9.787-1.602,19.99-1.018,30.192,1.799C434.669,81.191,452.044,131.436,430.177,167.869z"/>
	</g>
</g>
<g>
</g>
<g>
</g>
<g>
</g>
<g>
</g>
<g>
</g>
<g>
</g>
<g>
</g>
<g>
</g>
<g>
</g>
<g>
</g>
<g>
</g>
<g>
</g>
<g>
</g>
<g>
</g>
<g>
</g>
</svg>
