<?xml version="1.0" encoding="iso-8859-1"?>
<!-- Generator: Adobe Illustrator 19.0.0, SVG Export Plug-In . SVG Version: 6.00 Build 0)  -->
<svg xmlns="http://www.w3.org/2000/svg" xmlns:xlink="http://www.w3.org/1999/xlink" version="1.1" id="Layer_1" x="0px" y="0px" viewBox="0 0 512.001 512.001" style="enable-background:new 0 0 512.001 512.001;" xml:space="preserve">
<g>
	<g>
		<path d="M495.081,311.362c-27.653,0-54.454,7.576-77.73,21.681c1.44-41.202-14.084-81.32-43.915-111.152    c-6.513-6.514-17.075-6.514-23.589,0c-16.481,16.48-28.827,36.583-36.175,58.457c-6.734-5.653-13.965-10.751-21.642-15.171    c-15.597-8.978-24.909-24.28-24.909-40.932v-46.549c0-7.045,4.31-13.277,10.725-15.508c33.493-11.648,55.995-43.31,55.995-78.789    c0-9.212-7.468-16.68-16.68-16.68h-50.04V16.68c0-9.212-7.468-16.68-16.68-16.68h-66.72c-9.212,0-16.68,7.468-16.68,16.68v53.334    c-41.725,15.336-44.379,70.265-7.425,90.605c4.51,2.482,7.425,8.197,7.425,14.557v18.802c-8.849-3.128-18.234-4.782-27.8-4.782    c-45.987,0-83.401,37.413-83.401,83.4c0,22.577,9.115,43.918,24.921,59.461c-3.475,7.499-6.315,15.272-8.495,23.235    c-17.526-6.944-36.311-10.572-55.347-10.572c-9.212,0-16.68,7.468-16.68,16.68c0,77.134,58.477,140.856,133.425,149.188    c3.145,0.607,6.363,0.933,9.62,0.933h147.622c14.078,0,27.251-5.345,38.323-17.791c35.229,23.552,82.115,26.223,111.519-3.181    c13.344-13.344,20.716-31.116,21.386-50.984c31.639-28.483,49.627-68.674,49.627-111.524    C511.761,318.83,504.293,311.362,495.081,311.362z M34.996,379.484c11.116,1.735,21.921,5.069,32.066,9.891    c-0.805,22.345,3.422,44.312,12.343,64.665C56.119,436.163,39.72,409.738,34.996,379.484z M361.658,259.257    c15.585,21.299,23.4,47.097,22.314,73.428c-6.715-2.227-13.576-3.773-20.49-4.54c-4.15-0.461-8.229-0.618-12.233-0.53    c-3.11-6.143-6.666-12.044-10.589-17.691C343.539,291.611,350.775,274.201,361.658,259.257z M200.401,33.36h33.36v33.36h-33.36    V33.36z M89.2,272.596c0-27.592,22.447-50.04,50.04-50.04c9.668,0,19.03,2.791,27.048,7.95    c-2.528,14.458-11.516,27.261-25.149,35.247c-16.222,9.503-30.506,21.978-42.087,36.622C92.747,293.867,89.2,283.476,89.2,272.596    z M302.879,473.179c-2.923,3.168-7.287,4.984-11.972,4.984H150.36c-3.853,0-7.659-0.2-11.418-0.567    c-3.021-0.776-5.746-2.337-7.799-4.569c-19.878-21.613-30.824-49.408-30.824-78.264c0-13.554,2.303-26.775,6.64-39.031h186.257    c-12.037,15.546-17.299,35.713-14.873,57.554c2.31,20.783,11.45,41.149,25.999,58.244    C303.852,472.078,303.376,472.639,302.879,473.179z M125.537,322.484c8.81-10.984,19.727-20.482,32.465-27.944    c26.152-15.322,42.399-43.068,42.399-72.411v-46.953c0-18.622-9.464-35.398-24.7-43.783c-5.666-3.118-8.975-9.08-8.637-15.554    c0.455-8.689,8.774-15.869,18.544-15.869h112.011c-4.976,14.065-16.107,25.624-30.734,30.711    c-19.813,6.891-33.126,25.786-33.126,47.017v46.549c0,28.73,15.561,54.84,41.627,69.844c12.766,7.349,23.99,17.037,33.088,28.393    H125.537z M417.158,466.96c-19.512,19.511-56.55,14.218-82.563-11.794c-26.012-26.014-31.303-63.052-11.793-82.562    c16.998-16.998,44.972-13.966,66.261-1.032c0.078,0.046,0.155,0.093,0.232,0.138c5.629,3.445,11.056,7.675,16.069,12.688    C431.303,410.338,436.7,447.419,417.158,466.96z M454.504,398.837c-5.226-12.722-12.997-24.743-22.944-35.316    c13.76-8.935,29.227-14.87,45.452-17.401C474.023,365.381,466.272,383.443,454.504,398.837z"/>
	</g>
</g>
<g>
</g>
<g>
</g>
<g>
</g>
<g>
</g>
<g>
</g>
<g>
</g>
<g>
</g>
<g>
</g>
<g>
</g>
<g>
</g>
<g>
</g>
<g>
</g>
<g>
</g>
<g>
</g>
<g>
</g>
</svg>
