<?xml version="1.0" encoding="iso-8859-1"?>
<!-- Generator: Adobe Illustrator 19.0.0, SVG Export Plug-In . SVG Version: 6.00 Build 0)  -->
<svg xmlns="http://www.w3.org/2000/svg" xmlns:xlink="http://www.w3.org/1999/xlink" version="1.1" id="Layer_1" x="0px" y="0px" viewBox="0 0 512 512" style="enable-background:new 0 0 512 512;" xml:space="preserve">
<g>
	<g>
		<circle cx="389.565" cy="261.565" r="16.696"/>
	</g>
</g>
<g>
	<g>
		<circle cx="222.609" cy="261.565" r="16.696"/>
	</g>
</g>
<g>
	<g>
		<circle cx="289.391" cy="194.783" r="16.696"/>
	</g>
</g>
<g>
	<g>
		<circle cx="389.565" cy="361.739" r="16.696"/>
	</g>
</g>
<g>
	<g>
		<path d="M312.765,79.175v-9.262c0-20.138,16.384-36.522,36.522-36.522h6.261c9.22,0,16.696-7.475,16.696-16.696    S364.769,0,355.548,0h-6.261c-38.55,0-69.914,31.363-69.914,69.914v8.24C164.329,83.406,72.348,178.637,72.348,294.957    c0,5.569,0.224,11.144,0.647,16.696H22.261c-9.22,0-16.696,7.475-16.696,16.696v16.696C5.565,437.064,80.442,512,172.522,512    c19.058,0,37.375-3.218,54.448-9.125c20.181,6.051,41.148,9.125,62.422,9.125c119.678,0,217.043-97.366,217.043-217.043    C506.435,183.175,421.492,90.871,312.765,79.175z M38.957,345.043h93.259l-72.088,72.089    C46.735,396.324,38.957,371.575,38.957,345.043z M155.826,477.567c-28.465-3.565-54.169-16.127-74.178-34.735l74.178-74.178    V477.567z M189.217,477.567V368.654l74.178,74.178C243.386,461.44,217.682,474.002,189.217,477.567z M212.828,344.932h93.259    c0,26.532-7.778,51.391-21.17,72.2L212.828,344.932z M289.391,478.609c-5.331,0-10.637-0.235-15.911-0.687    c40.447-30.806,65.998-79.171,65.998-132.878v-16.696c0-9.22-7.475-16.696-16.696-16.696c-12.3,0-211.897,0-216.285,0    c-0.498-5.543-0.758-11.123-0.758-16.696c0-101.266,82.386-183.652,183.652-183.652s183.652,82.386,183.652,183.652    S390.657,478.609,289.391,478.609z"/>
	</g>
</g>
<g>
</g>
<g>
</g>
<g>
</g>
<g>
</g>
<g>
</g>
<g>
</g>
<g>
</g>
<g>
</g>
<g>
</g>
<g>
</g>
<g>
</g>
<g>
</g>
<g>
</g>
<g>
</g>
<g>
</g>
</svg>
