<?xml version="1.0" encoding="iso-8859-1"?>
<!-- Generator: Adobe Illustrator 19.0.0, SVG Export Plug-In . SVG Version: 6.00 Build 0)  -->
<svg xmlns="http://www.w3.org/2000/svg" xmlns:xlink="http://www.w3.org/1999/xlink" version="1.1" id="Layer_1" x="0px" y="0px" viewBox="0 0 512 512" style="enable-background:new 0 0 512 512;" xml:space="preserve">
<g>
	<g>
		<circle cx="189.217" cy="411.826" r="16.696"/>
	</g>
</g>
<g>
	<g>
		<circle cx="322.783" cy="411.826" r="16.696"/>
	</g>
</g>
<g>
	<g>
		<path d="M460.562,130.213c26.614-8.795,45.873-33.907,45.873-63.43C506.435,29.959,476.476,0,439.652,0    c-31.042,0-57.205,21.289-64.657,50.087H137.017C129.585,21.316,103.408,0,72.348,0C35.524,0,5.565,29.959,5.565,66.783    c0,29.521,19.262,54.614,45.873,63.411c-3.345,12.219-6.593,23.856-9.764,35.216C13.088,267.798-4.166,329.6,28.835,400.511    C69.839,488.617,158.586,512,256,512c97.444,0,186.15-23.359,227.165-111.489c32.878-70.645,15.571-132.858-13.102-235.932    C466.979,153.486,463.822,142.138,460.562,130.213z M339.478,83.478h33.391v144.696c0,31.771-12.749,60.614-33.391,81.702V83.478z     M272.696,83.478h33.391v250.273c-10.384,4.946-21.606,8.4-33.391,10.094V83.478z M205.913,83.478h33.391v260.368    c-11.785-1.693-23.008-5.148-33.391-10.094V83.478z M139.13,83.478h33.391v226.397c-20.643-21.088-33.391-49.931-33.391-81.702    V83.478z M452.892,386.422c-29.27,62.894-91.834,92.187-196.892,92.187S88.378,449.316,59.108,386.422    c-27.796-59.726-12.692-113.824,14.726-212.034c4.686-16.781,9.531-34.135,14.639-53.196c2.868-10.683-5.331-21.019-16.125-21.019    c-18.412,0-33.391-14.979-33.391-33.391c0-18.412,14.979-33.391,33.391-33.391s33.391,14.979,33.391,33.391    c0,1.241,0,161.391,0,161.391c0,77.157,58.492,140.991,133.565,149.328v49.628c0,9.22,7.475,16.696,16.696,16.696    c9.22,0,16.696-7.475,16.696-16.696v-49.628c75.063-8.336,133.565-72.164,133.565-149.328V66.783    c0-18.412,14.979-33.391,33.391-33.391c18.412,0,33.391,14.979,33.391,33.391c0,18.412-14.979,33.391-33.391,33.391    c-10.97,0-18.967,10.424-16.126,21.019c5.026,18.755,9.775,35.827,14.368,52.336C466.308,275.675,480.572,326.948,452.892,386.422    z"/>
	</g>
</g>
<g>
</g>
<g>
</g>
<g>
</g>
<g>
</g>
<g>
</g>
<g>
</g>
<g>
</g>
<g>
</g>
<g>
</g>
<g>
</g>
<g>
</g>
<g>
</g>
<g>
</g>
<g>
</g>
<g>
</g>
</svg>
