<?xml version="1.0" encoding="iso-8859-1"?>
<!-- Generator: Adobe Illustrator 19.0.0, SVG Export Plug-In . SVG Version: 6.00 Build 0)  -->
<svg xmlns="http://www.w3.org/2000/svg" xmlns:xlink="http://www.w3.org/1999/xlink" version="1.1" id="Layer_1" x="0px" y="0px" viewBox="0 0 512 512" style="enable-background:new 0 0 512 512;" xml:space="preserve">
<g>
	<g>
		<path d="M467.776,71.837c-3.677-3.678-9.036-5.504-14.257-4.754c-52.813,7.546-100.224,21.081-141.69,40.383    C288.707,37.308,216.806-7.227,141.969,5.965c-9.133,1.612-15.242,10.327-13.631,19.466c7.016,39.782,29.102,74.449,62.191,97.619    c16.821,11.778,35.466,19.84,54.953,24.026c-14.124,10.69-27.071,22.278-38.833,34.733c-24.613-23.166-56.07-37.322-90.258-40.314    c-40.241-3.514-79.444,8.841-110.388,34.806c-7.11,5.965-8.036,16.563-2.071,23.672c29.871,35.6,72.774,53.955,115.968,53.955    c13.16,0,26.346-1.712,39.199-5.152c-8.051,15.534-14.832,31.937-20.325,49.186c-38.402-3.643-77.96,20.611-103.466,51.009    c-40.843,48.673-48.253,113.056-11.246,144.109c36.822,30.894,98.836,12.915,139.964-36.101    c42.757-50.954,48.607-118.715,6.429-147.766c32.904-104.753,112.878-159.243,194.995-187.15    c-8.688,7.636-16.418,15.5-23.312,23.679c-28.984,34.384-43.074,74.249-43.074,121.872v3.206    c-39.637,10.881-67.212,59.473-67.212,115.352c0,63.576,35.729,117.622,84.016,117.622c48.315,0,84.016-54.091,84.016-117.622    c0-50.082-23.907-103.466-67.212-115.352v-3.206c0-56.362,22.266-98.27,74.505-135.682    c-16.967,52.375-4.69,112.244,36.837,153.772c6.555,6.558,17.203,6.562,23.763,0C526.741,226.741,526.741,130.801,467.776,71.837z     M138.286,435.379c-29.273,34.887-71.684,49.524-92.621,31.956c-20.872-17.513-13.721-62.068,15.387-96.762    c28.103-33.49,62.974-44.266,83.143-37.285c0.03,0.012,0.063,0.02,0.093,0.032C175.813,344.341,171.339,395.987,138.286,435.379z     M42.447,191.408c21.203-12.85,45.846-18.628,71.016-16.433c25.167,2.202,48.432,12.179,67.081,28.516    C136.956,229.822,80.803,224.909,42.447,191.408z M209.805,95.52c-20.695-14.49-35.856-34.762-43.838-58.234    c50.931-1.051,97.09,31.322,113.553,79.511C254.776,117.338,230.501,110.011,209.805,95.52z M366.279,386.172    c0,45.541-23.084,84.016-50.409,84.016s-50.409-38.475-50.409-84.016c0-45.541,23.084-84.016,50.409-84.016    S366.279,340.632,366.279,386.172z M455.895,248.069c-30.021-41.124-30.021-97.475,0-138.599    C485.917,150.595,485.917,206.945,455.895,248.069z"/>
	</g>
</g>
<g>
</g>
<g>
</g>
<g>
</g>
<g>
</g>
<g>
</g>
<g>
</g>
<g>
</g>
<g>
</g>
<g>
</g>
<g>
</g>
<g>
</g>
<g>
</g>
<g>
</g>
<g>
</g>
<g>
</g>
</svg>
