<?xml version="1.0" encoding="iso-8859-1"?>
<!-- Generator: Adobe Illustrator 19.0.0, SVG Export Plug-In . SVG Version: 6.00 Build 0)  -->
<svg xmlns="http://www.w3.org/2000/svg" xmlns:xlink="http://www.w3.org/1999/xlink" version="1.1" id="Layer_1" x="0px" y="0px" viewBox="0 0 512 512" style="enable-background:new 0 0 512 512;" xml:space="preserve">
<g>
	<g>
		<circle cx="406.885" cy="215.815" r="16.765"/>
	</g>
</g>
<g>
	<g>
		<circle cx="390.12" cy="428.177" r="16.765"/>
	</g>
</g>
<g>
	<g>
		<circle cx="121.873" cy="349.939" r="16.765"/>
	</g>
</g>
<g>
	<g>
		<path d="M222.469,333.169c-27.733,0-50.296,22.563-50.296,50.296c0,27.733,22.562,50.296,50.296,50.296    c27.733,0,50.296-22.563,50.296-50.296C272.765,355.732,250.202,333.169,222.469,333.169z M222.469,400.23    c-9.244,0-16.765-7.521-16.765-16.765s7.52-16.765,16.765-16.765c9.244,0,16.765,7.521,16.765,16.765    S231.714,400.23,222.469,400.23z"/>
	</g>
</g>
<g>
	<g>
		<path d="M323.062,98.453c-27.733,0-50.296,22.563-50.296,50.296s22.562,50.296,50.296,50.296    c27.733,0,50.296-22.563,50.296-50.296S350.795,98.453,323.062,98.453z M323.062,165.515c-9.244,0-16.765-7.521-16.765-16.765    s7.52-16.765,16.765-16.765c9.244,0,16.765,7.521,16.765,16.765S332.306,165.515,323.062,165.515z"/>
	</g>
</g>
<g>
	<g>
		<path d="M507.481,268.062c0-65.001-23.438-127.856-65.995-176.987C398.932,41.949,340.071,9.788,275.745,0.513    c-16.506-2.378-32.83,3.608-43.685,16.011l-38.017,43.449c-12.394,14.163-11.791,35.179,1.374,47.844    c8.132,7.826,11.697,18.819,9.776,30.159c-2.309,13.639-13.943,25.049-27.661,27.129c-9.326,1.413-18.484-0.905-25.792-6.533    c-14.73-11.34-35.891-9.233-48.177,4.805L8.667,271.832c-2.568,2.936-4.137,6.883-4.146,11.009c0,0.011-0.001,0.021-0.001,0.031    v54.1c0,13.95,8.845,26.231,22.009,30.558c15.315,5.035,15.331,26.829,0.001,31.868c-13.165,4.328-22.011,16.608-22.011,30.56    v35.239C4.519,491.004,25.515,512,51.322,512h409.355c25.808,0,46.803-20.996,46.803-46.803V283.543    c0-0.113-0.015-0.222-0.017-0.335c0.002-0.113,0.017-0.222,0.017-0.335V268.062z M128.797,185.46    c0.655-0.749,1.747-0.887,2.487-0.32c14.616,11.259,32.828,15.92,51.278,13.116c28.059-4.256,50.961-26.742,55.691-54.682    c3.739-22.08-3.555-44.445-19.512-59.847c-0.27-1.238-1.89,1.1,38.553-45.122c3.345-3.823,8.452-5.659,13.666-4.904    c115.299,16.622,202.338,116.031,202.975,232.407h-16.751c-27.733,0-50.296,23.234-50.296,50.967v9.28    c0,9.82-7.105,18.182-15.839,18.639c-9.666,0.531-17.692-7.148-17.692-16.742v-11.849c0-27.733-22.563-50.296-50.296-50.296    c-7.576,0-247.882,0-264.83,0L128.797,185.46z M473.95,465.196c0,7.319-5.954,13.273-13.273,13.273H51.322    c-7.319,0-13.273-5.954-13.273-13.273v-34.303c44.577-15.733,44.632-79.101,0-94.859v-36.508c5.924,0,257.911,0,285.012,0    c9.244,0,16.765,7.633,16.765,16.877v11.849c0,28.187,23.522,51.77,52.975,50.227c26.702-1.398,47.617-24.293,47.617-52.124v-9.28    c0-9.244,7.521-17.548,16.765-17.548h16.765V465.196z"/>
	</g>
</g>
<g>
</g>
<g>
</g>
<g>
</g>
<g>
</g>
<g>
</g>
<g>
</g>
<g>
</g>
<g>
</g>
<g>
</g>
<g>
</g>
<g>
</g>
<g>
</g>
<g>
</g>
<g>
</g>
<g>
</g>
</svg>
