<?xml version="1.0" encoding="iso-8859-1"?>
<!-- Generator: Adobe Illustrator 19.0.0, SVG Export Plug-In . SVG Version: 6.00 Build 0)  -->
<svg xmlns="http://www.w3.org/2000/svg" xmlns:xlink="http://www.w3.org/1999/xlink" version="1.1" id="Layer_1" x="0px" y="0px" viewBox="0 0 512 512" style="enable-background:new 0 0 512 512;" xml:space="preserve">
<g>
	<g>
		<path d="M473.043,147.567V116.87c0-9.22-7.475-16.696-16.696-16.696s-16.696,7.475-16.696,16.696v30.698    c-19.433,6.892-33.391,25.45-33.391,47.215v16.696H372.87v-50.087c0-58.774-43.612-107.546-100.174-115.672V16.696    C272.696,7.475,265.22,0,256,0c-9.22,0-16.696,7.475-16.696,16.696v29.024c-56.562,8.126-100.174,56.898-100.174,115.672v50.087    h-33.391v-16.696c0-21.766-13.959-40.323-33.391-47.215V116.87c0-9.22-7.475-16.696-16.696-16.696    c-9.22,0-16.696,7.475-16.696,16.696v30.698c-19.433,6.892-33.391,25.45-33.391,47.215c0,8.894,0,289.799,0,300.522    c0,9.22,7.475,16.696,16.696,16.696c7.426,0,458.643,0,467.478,0c9.22,0,16.696-7.475,16.696-16.696s0-292.816,0-300.522    C506.435,173.017,492.476,154.459,473.043,147.567z M256,77.913c40.314,0,74.042,28.725,81.799,66.783H174.201    C181.958,106.638,215.686,77.913,256,77.913z M172.522,178.087h166.957v33.391H172.522V178.087z M38.957,194.783    c0-9.206,7.49-16.696,16.696-16.696c9.206,0,16.696,7.49,16.696,16.696v16.696H38.957V194.783z M72.348,478.609H38.957V345.043    h33.391V478.609z M139.13,478.609h-33.391V345.043h33.391V478.609z M38.957,311.652c0-7.312,0-58.286,0-66.783    c4.976,0,171.795,0,176.737,0l-66.783,66.783H38.957z M256,251.785l59.867,59.867H196.133L256,251.785z M272.696,478.609h-33.391    v-66.783h33.391V478.609z M339.478,478.609h-33.391V395.13c0-9.22-7.475-16.696-16.696-16.696h-66.783    c-9.22,0-16.696,7.475-16.696,16.696v83.478h-33.391V345.043h166.957V478.609z M406.261,478.609H372.87V345.043h33.391V478.609z     M473.043,478.609h-33.391V345.043h33.391V478.609z M473.043,311.652H363.089l-66.783-66.783c4.943,0,171.76,0,176.737,0    C473.043,252.542,473.043,304.454,473.043,311.652z M473.043,211.478h-33.391v-16.696c0-9.206,7.49-16.696,16.696-16.696    c9.206,0,16.696,7.49,16.696,16.696V211.478z"/>
	</g>
</g>
<g>
</g>
<g>
</g>
<g>
</g>
<g>
</g>
<g>
</g>
<g>
</g>
<g>
</g>
<g>
</g>
<g>
</g>
<g>
</g>
<g>
</g>
<g>
</g>
<g>
</g>
<g>
</g>
<g>
</g>
</svg>
