<?xml version="1.0" encoding="iso-8859-1"?>
<!-- Generator: Adobe Illustrator 19.0.0, SVG Export Plug-In . SVG Version: 6.00 Build 0)  -->
<svg xmlns="http://www.w3.org/2000/svg" xmlns:xlink="http://www.w3.org/1999/xlink" version="1.1" id="Layer_1" x="0px" y="0px" viewBox="0 0 512 512" style="enable-background:new 0 0 512 512;" xml:space="preserve">
<g>
	<g>
		<path d="M490.011,389.423h-16.693v-94.895c0-21.804-13.985-40.394-33.452-47.294v-86.419c0-33.368-31.462-53.347-52.821-49.977    h-14.04V71.401c0-41.467-34.987-79.197-77.984-70.008c-15.553,3.317-29.401,12.101-39.099,24.576    c-10.569-13.155-26.031-22.087-42.925-24.474c-42.115-5.936-74.003,29.899-74.003,69.907v39.438h-14.04    c-21.502-3.393-52.821,16.726-52.821,49.977v86.41c-19.456,6.917-33.43,25.507-33.43,47.308v94.889H21.989    c-9.231,0-16.715,7.484-16.715,16.715c0,31.101,12.533,58.839,35.29,78.103C61.712,502.142,90.733,512,122.28,512h267.442    c31.548,0,60.569-9.858,81.714-27.759c22.757-19.263,35.29-47.002,35.29-78.103C506.726,396.907,499.242,389.423,490.011,389.423z     M436.547,284.536c2.088,2.793,3.341,6.244,3.341,9.991v94.895H339.575v-44.573h16.715    C394.302,344.85,426.445,319.334,436.547,284.536z M155.71,311.42c-21.793,0-40.382-14.084-47.281-33.542h295.142    c-6.898,19.457-25.488,33.542-47.281,33.542H155.71z M306.145,344.85v44.573h-100.29V344.85H306.145z M239.285,244.559v-33.43    h33.43v33.43H239.285z M403.112,150.835c2.078,2.793,3.324,6.239,3.324,9.98v83.744h-100.29v-33.43h16.715    C360.865,211.129,393.002,185.622,403.112,150.835z M279.998,49.868c4.795-7.974,12.981-13.858,21.997-15.78    c21.322-4.562,37.58,16.919,37.58,37.314v39.438h-33.43V94.124c0-18.999-10.622-35.565-26.238-44.07L279.998,49.868z     M239.285,94.124c0-9.217,7.498-16.715,16.715-16.715c9.217,0,16.715,7.498,16.715,16.715v16.715h-33.43V94.124z M172.425,71.401    c0-19.353,14.132-39.874,35.897-36.805c9.785,1.382,18.592,7.137,23.766,15.461c-15.613,8.507-26.233,25.069-26.233,44.066v16.715    h-33.43V71.401z M370.142,144.269c-6.898,19.457-25.488,33.43-47.281,33.43H189.14c-21.793,0-40.382-13.973-47.281-33.43    C147.657,144.269,360.439,144.269,370.142,144.269z M105.565,160.816c0-3.741,1.246-7.187,3.324-9.98    c10.109,34.787,42.247,60.293,80.251,60.293h16.715v33.43h-100.29V160.816z M72.135,294.534c0-3.741,1.246-7.186,3.324-9.979    c10.108,34.787,42.247,60.295,80.251,60.295h16.715v44.573H72.135V294.534z M389.722,478.57H122.28    c-36.644,0-73.579-17.491-81.859-55.828H471.58C463.299,461.08,426.366,478.57,389.722,478.57z"/>
	</g>
</g>
<g>
</g>
<g>
</g>
<g>
</g>
<g>
</g>
<g>
</g>
<g>
</g>
<g>
</g>
<g>
</g>
<g>
</g>
<g>
</g>
<g>
</g>
<g>
</g>
<g>
</g>
<g>
</g>
<g>
</g>
</svg>
