<?xml version="1.0" encoding="iso-8859-1"?>
<!-- Generator: Adobe Illustrator 19.0.0, SVG Export Plug-In . SVG Version: 6.00 Build 0)  -->
<svg xmlns="http://www.w3.org/2000/svg" xmlns:xlink="http://www.w3.org/1999/xlink" version="1.1" id="Layer_1" x="0px" y="0px" viewBox="0 0 512 512" style="enable-background:new 0 0 512 512;" xml:space="preserve">
<g>
	<g>
		<path d="M222.427,166.957c-9.22,0-16.696,7.475-16.696,16.696v178.087c0,9.22,7.475,16.696,16.696,16.696    c9.22,0,16.584-7.475,16.584-16.696V183.652C239.011,174.432,231.649,166.957,222.427,166.957z"/>
	</g>
</g>
<g>
	<g>
		<path d="M289.21,166.957c-9.22,0-16.696,7.475-16.696,16.696v178.087c0,9.22,7.475,16.696,16.696,16.696    s16.584-7.475,16.584-16.696V183.652C305.794,174.432,298.431,166.957,289.21,166.957z"/>
	</g>
</g>
<g>
	<g>
		<path d="M470.545,70.191C460.877,31.521,427.986,3.881,390.07,0c-2.165,0-2.851,0-2.816,0c-11.344,0-63.237,0-264.37,0    c-38.35,3.478-71.718,31.221-81.459,70.191c-11.196,44.781,12,82.208,46.946,94.831c17.612,6.36,35.537,5.405,50.578-2.133    v251.808c-19.433,6.892-33.391,25.45-33.391,47.215v33.391c0,9.22,7.475,16.696,16.696,16.696h267.13    c9.22,0,16.584-7.475,16.584-16.696v-33.391c0-21.766-13.959-40.323-33.391-47.215V162.69c14.947,7.594,33.203,8.78,51.253,2.262    C458.48,152.437,481.836,115.359,470.545,70.191z M372.688,461.913v16.696h-233.85v-16.696c0-9.206,7.601-16.696,16.807-16.696    h200.348C365.199,445.217,372.688,452.707,372.688,461.913z M172.229,411.826V133.565h167.068v278.261H172.229z M412.485,133.545    c-12.547,4.532-28.877,3.291-37.087-13.782c-2.166-4.505-2.601-9.023-1.163-12.088c1.834-3.909,6.913-5.902,10.849-6.888    c8.945-2.236,14.385-11.301,12.148-20.246c-2.237-8.947-11.304-14.385-20.245-12.148c-19.851,4.963-28.89,16.386-32.977,25.095    c-1.011,2.153-1.818,4.391-2.444,6.685H170.403c-0.627-2.294-1.434-4.532-2.444-6.685c-4.087-8.708-13.126-20.132-32.976-25.095    c-8.941-2.232-18.011,3.202-20.246,12.148c-2.237,8.946,3.202,18.01,12.147,20.246c3.937,0.984,9.015,2.977,10.849,6.886    c1.438,3.065,1.004,7.584-1.162,12.089c-8.206,17.065-24.42,18.342-36.855,13.852c-18.138-6.55-33.178-26.198-25.896-55.326    c6.03-24.117,26.08-41.535,49.441-44.737l1.24-0.161c0.226-0.026,263.623-0.029,263.84,0l3.162,0.511    c22.138,4.176,40.85,21.198,46.647,44.386C445.433,107.425,430.508,127.035,412.485,133.545z"/>
	</g>
</g>
<g>
</g>
<g>
</g>
<g>
</g>
<g>
</g>
<g>
</g>
<g>
</g>
<g>
</g>
<g>
</g>
<g>
</g>
<g>
</g>
<g>
</g>
<g>
</g>
<g>
</g>
<g>
</g>
<g>
</g>
</svg>
