<?xml version="1.0" encoding="iso-8859-1"?>
<!-- Generator: Adobe Illustrator 19.0.0, SVG Export Plug-In . SVG Version: 6.00 Build 0)  -->
<svg xmlns="http://www.w3.org/2000/svg" xmlns:xlink="http://www.w3.org/1999/xlink" version="1.1" id="Layer_1" x="0px" y="0px" viewBox="0 0 512 512" style="enable-background:new 0 0 512 512;" xml:space="preserve">
<g>
	<g>
		<path d="M413.948,24.555C405.126,9.409,388.493,0,370.538,0c-4.988,0-223.976,0-229.079,0c-17.954,0-34.588,9.409-43.41,24.555    C56.765,95.437,37.088,176.068,37.088,256c0,79.966,19.704,160.61,60.962,231.445c8.822,15.146,25.455,24.555,43.41,24.555    c2.509,0,226.564,0,229.079,0c17.955,0,34.588-9.409,43.41-24.555c41.272-70.86,60.963-151.502,60.963-231.445    C474.911,176.207,455.287,95.528,413.948,24.555z M370.538,33.391c6.023,0,11.736,3.129,14.555,7.969    c4.833,8.297,9.346,16.781,13.554,25.422h-37.764c-3.614-11.219-7.566-22.373-11.842-33.391H370.538z M272.472,33.391h40.595    c4.551,10.981,8.768,22.138,12.63,33.391h-53.225V33.391z M198.932,33.391h40.372v33.391h-53.001    C190.163,55.53,194.38,44.374,198.932,33.391z M126.905,41.361c2.819-4.841,8.533-8.081,14.555-8.081h21.496    c-4.275,11.018-8.229,22.283-11.842,33.503h-37.764C117.559,58.141,122.073,49.657,126.905,41.361z M98.936,100.174    c5.214,0,295.644,0,314.128,0c4.159,10.952,7.856,22.096,11.091,33.391H87.844C91.08,122.27,94.776,111.126,98.936,100.174z     M239.304,303.215v41.828h-77.436c-8.299-56.727-8.299-121.36,0-178.087h77.436v41.828c-19.433,6.892-33.391,25.45-33.391,47.215    S219.871,296.323,239.304,303.215z M255.999,239.304c9.206,0,16.696,7.49,16.696,16.696c0,9.206-7.49,16.696-16.696,16.696    c-9.206,0-16.696-7.49-16.696-16.696C239.304,246.794,246.793,239.304,255.999,239.304z M272.584,303.215    c19.433-6.892,33.503-25.45,33.503-47.215s-14.07-40.323-33.503-47.215v-41.828h77.547c8.3,56.727,8.3,121.36,0,178.087h-77.547    V303.215z M79.701,166.957h48.44c-7.821,57.012-7.821,121.075,0,178.087h-48.44C67.877,286.604,67.876,225.396,79.701,166.957z     M141.461,478.609c-6.023,0-11.736-3.129-14.555-7.969c-4.833-8.297-9.346-16.781-13.554-25.422h37.763    c3.614,11.219,7.566,22.373,11.842,33.391H141.461z M239.304,478.609h-40.372c-4.551-10.981-8.769-22.138-12.63-33.391h53.002    V478.609z M313.067,478.609h-40.484v-33.503h53.112C321.836,456.359,317.619,467.626,313.067,478.609z M385.094,470.639    c-2.819,4.841-8.533,7.969-14.555,7.969h-21.496c4.275-11.018,8.229-22.283,11.842-33.503h37.763    C394.44,453.748,389.926,462.343,385.094,470.639z M413.063,411.826c-11.773,0-299.661,0-314.128,0    c-4.158-10.952-7.856-22.207-11.091-33.503c8.148,0,326.175,0,336.311,0C420.919,389.619,417.222,400.874,413.063,411.826z     M383.859,345.043c7.822-57.012,7.822-121.075,0-178.087h48.439c11.825,58.439,11.824,119.648,0,178.087H383.859z"/>
	</g>
</g>
<g>
</g>
<g>
</g>
<g>
</g>
<g>
</g>
<g>
</g>
<g>
</g>
<g>
</g>
<g>
</g>
<g>
</g>
<g>
</g>
<g>
</g>
<g>
</g>
<g>
</g>
<g>
</g>
<g>
</g>
</svg>
