<?xml version="1.0" encoding="iso-8859-1"?>
<!-- Generator: Adobe Illustrator 19.0.0, SVG Export Plug-In . SVG Version: 6.00 Build 0)  -->
<svg xmlns="http://www.w3.org/2000/svg" xmlns:xlink="http://www.w3.org/1999/xlink" version="1.1" id="Layer_1" x="0px" y="0px" viewBox="0 0 512 512" style="enable-background:new 0 0 512 512;" xml:space="preserve">
<g>
	<g>
		<path d="M473.043,66.783H122.435V50.087C122.435,22.469,99.966,0,72.348,0S22.261,22.469,22.261,50.087    c0,15.432,0,422.528,0,445.217c0,9.22,7.475,16.696,16.696,16.696h66.783c9.22,0,16.696-7.475,16.696-16.696v-128h350.609    c9.22,0,16.696-7.475,16.696-16.696V83.478C489.739,74.258,482.264,66.783,473.043,66.783z M55.652,50.087    c0-9.206,7.49-16.696,16.696-16.696s16.696,7.49,16.696,16.696v16.696H55.652V50.087z M89.043,478.609H55.652V367.304h33.391    V478.609z M166.957,333.913H55.652c0-8.809,0-224.937,0-233.739c12.365,0,99.612,0,111.304,0V333.913z M311.652,333.913H200.348    V100.174h111.304V333.913z M456.348,333.913H345.043V100.174h111.304V333.913z"/>
	</g>
</g>
<g>
</g>
<g>
</g>
<g>
</g>
<g>
</g>
<g>
</g>
<g>
</g>
<g>
</g>
<g>
</g>
<g>
</g>
<g>
</g>
<g>
</g>
<g>
</g>
<g>
</g>
<g>
</g>
<g>
</g>
</svg>
