<?xml version="1.0" encoding="iso-8859-1"?>
<!-- Generator: Adobe Illustrator 19.0.0, SVG Export Plug-In . SVG Version: 6.00 Build 0)  -->
<svg xmlns="http://www.w3.org/2000/svg" xmlns:xlink="http://www.w3.org/1999/xlink" version="1.1" id="Layer_1" x="0px" y="0px" viewBox="0 0 512 512" style="enable-background:new 0 0 512 512;" xml:space="preserve">
<g>
	<g>
		<path d="M395.13,5.565H183.652c-58.774,0-107.546,43.613-115.672,100.174H50.087c-9.206,0-16.696-7.49-16.696-16.696    c0-9.22-7.475-16.696-16.696-16.696S0,79.823,0,89.044c0,12.819,4.846,24.523,12.794,33.391C4.846,131.304,0,143.007,0,155.826    c0,9.22,7.475,16.696,16.696,16.696s16.696-7.475,16.696-16.696c0-9.206,7.49-16.696,16.696-16.696H67.98    c8.126,56.56,56.898,100.174,115.672,100.174H395.13c64.442,0,116.87-52.428,116.87-116.87S459.572,5.565,395.13,5.565z     M183.652,205.913c-46.03,0-83.478-37.448-83.478-83.478s37.448-83.478,83.478-83.478h129.776    c-21.685,21.229-35.168,50.806-35.168,83.478c0,32.672,13.482,62.249,35.168,83.478H183.652z M395.13,205.913    c-46.03,0-83.478-37.448-83.478-83.478s37.448-83.478,83.478-83.478s83.478,37.448,83.478,83.478S441.16,205.913,395.13,205.913z"/>
	</g>
</g>
<g>
	<g>
		<circle cx="428.522" cy="89.044" r="16.696"/>
	</g>
</g>
<g>
	<g>
		<circle cx="361.739" cy="122.435" r="16.696"/>
	</g>
</g>
<g>
	<g>
		<circle cx="428.522" cy="155.826" r="16.696"/>
	</g>
</g>
<g>
	<g>
		<path d="M395.13,272.696c-24.803,0-47.821,7.772-66.76,21.001c-19.506-13.606-42.754-21.001-66.805-21.001    c-24.803,0-47.821,7.772-66.76,21.001c-19.506-13.606-42.754-21.001-66.805-21.001c-64.442,0-116.87,52.428-116.87,116.87    S63.558,506.435,128,506.435c24.051,0,47.299-7.395,66.805-21.001c18.94,13.229,41.957,21.001,66.76,21.001    c24.051,0,47.299-7.395,66.805-21.001c18.94,13.229,41.957,21.001,66.76,21.001c64.442,0,116.87-52.428,116.87-116.87    S459.572,272.696,395.13,272.696z M169.775,461.825c-12.605,7.294-26.976,11.218-41.775,11.218    c-46.03,0-83.478-37.448-83.478-83.478c0-46.03,37.448-83.478,83.478-83.478c14.799,0,29.17,3.925,41.775,11.218    c-15.7,19.9-25.079,45.005-25.079,72.26C144.696,416.82,154.075,441.925,169.775,461.825z M303.34,461.825    c-12.605,7.294-26.976,11.218-41.775,11.218c-46.03,0-83.478-37.448-83.478-83.478c0-46.03,37.448-83.478,83.478-83.478    c14.799,0,29.169,3.925,41.775,11.218c-15.699,19.9-25.079,45.005-25.079,72.26C278.261,416.82,287.641,441.925,303.34,461.825z     M395.13,473.043c-46.03,0-83.478-37.448-83.478-83.478c0-46.03,37.448-83.478,83.478-83.478s83.478,37.448,83.478,83.478    C478.609,435.595,441.16,473.043,395.13,473.043z"/>
	</g>
</g>
<g>
	<g>
		<circle cx="428.522" cy="356.174" r="16.696"/>
	</g>
</g>
<g>
	<g>
		<circle cx="361.739" cy="389.565" r="16.696"/>
	</g>
</g>
<g>
	<g>
		<circle cx="428.522" cy="422.957" r="16.696"/>
	</g>
</g>
<g>
	<g>
		<circle cx="228.174" cy="389.565" r="16.696"/>
	</g>
</g>
<g>
	<g>
		<circle cx="94.609" cy="389.565" r="16.696"/>
	</g>
</g>
<g>
</g>
<g>
</g>
<g>
</g>
<g>
</g>
<g>
</g>
<g>
</g>
<g>
</g>
<g>
</g>
<g>
</g>
<g>
</g>
<g>
</g>
<g>
</g>
<g>
</g>
<g>
</g>
<g>
</g>
</svg>
