<?xml version="1.0" encoding="iso-8859-1"?>
<!-- Generator: Adobe Illustrator 19.0.0, SVG Export Plug-In . SVG Version: 6.00 Build 0)  -->
<svg xmlns="http://www.w3.org/2000/svg" xmlns:xlink="http://www.w3.org/1999/xlink" version="1.1" id="Layer_1" x="0px" y="0px" viewBox="0 0 512 512" style="enable-background:new 0 0 512 512;" xml:space="preserve">
<g>
	<g>
		<path d="M495.304,477.137H355.61l10.857-40.517l16.127,4.321c8.901,2.387,18.06-2.896,20.448-11.805    c2.386-8.907-2.899-18.061-11.806-20.448l-16.126-4.321l17.284-64.508c17.537,4.699,17.587,4.894,20.459,4.894    c7.371,0,14.118-4.92,16.116-12.379c2.386-8.907-2.899-18.061-11.806-20.448l-16.126-4.321l17.284-64.508    c17.537,4.699,17.588,4.895,20.459,4.895c7.371,0,14.118-4.92,16.116-12.379c2.386-8.907-2.899-18.061-11.806-20.448    l-16.127-4.321l17.284-64.508c17.573,4.708,17.591,4.894,20.458,4.894c7.371,0,14.118-4.92,16.116-12.379    c2.386-8.907-2.899-18.061-11.806-20.448l-48.378-12.963l12.964-48.381c2.386-8.907-2.898-18.061-11.806-20.448L292.779,2.046    c-8.902-2.384-18.062,2.898-20.449,11.805l-12.964,48.381l-48.38-12.964c-8.895-2.385-18.061,2.898-20.448,11.805    s2.899,18.061,11.806,20.448l16.126,4.321l-17.284,64.508l-16.127-4.321c-8.893-2.385-18.06,2.898-20.448,11.805    c-2.386,8.907,2.899,18.061,11.806,20.448l16.126,4.321l-17.284,64.508l-16.127-4.321c-8.895-2.385-18.061,2.898-20.448,11.805    c-2.386,8.907,2.899,18.061,11.806,20.448l16.126,4.321l-17.284,64.508l-16.127-4.321c-8.893-2.385-18.061,2.898-20.448,11.805    c-2.386,8.907,2.9,18.061,11.806,20.448l16.127,4.321l-27.066,101.013H16.696C7.475,477.135,0,484.61,0,493.831    s7.475,16.696,16.696,16.696c212.176,0,134.688,0,478.609,0c9.22,0,16.696-7.475,16.696-16.696S504.525,477.137,495.304,477.137z     M300.264,38.62l96.761,25.927l-8.643,32.254l-96.761-25.927L300.264,38.62z M250.725,94.485l161.268,43.212l-17.284,64.508    l-32.253-8.642l4.321-16.127c2.386-8.907-2.898-18.061-11.805-20.448c-8.9-2.385-18.062,2.898-20.449,11.805l-4.321,16.127    c-11.993-3.213-20.264-5.429-32.253-8.643l4.321-16.128c2.386-8.907-2.899-18.061-11.806-20.448    c-8.901-2.384-18.061,2.898-20.448,11.806l-4.321,16.127l-32.254-8.642L250.725,94.485z M224.798,191.245    c5.199,1.393,149.704,40.113,161.268,43.212l-17.286,64.508l-32.253-8.642l4.321-16.127c2.386-8.907-2.899-18.061-11.806-20.448    c-8.893-2.385-18.06,2.898-20.448,11.805l-4.321,16.127l-32.253-8.642l4.321-16.127c2.386-8.907-2.898-18.061-11.805-20.448    c-8.901-2.384-18.061,2.898-20.449,11.805l-4.321,16.127l-32.254-8.642L224.798,191.245z M321.04,477.137h-34.569l2.524-9.421    c2.386-8.907-2.898-18.062-11.805-20.449c-8.902-2.385-18.063,2.898-20.449,11.805l-4.841,18.064h-34.568l7.156-26.705    c2.386-8.907-2.899-18.061-11.806-20.448c-8.895-2.385-18.061,2.898-20.448,11.805l-9.471,35.348h-34.568l24.751-92.37    c7.08,1.897,147.725,39.583,161.267,43.212L321.04,477.137z M310.6,387.083l4.321-16.127c2.386-8.907-2.898-18.061-11.805-20.448    c-8.903-2.386-18.062,2.898-20.449,11.805l-4.321,16.127l-32.253-8.642l4.321-16.127c2.386-8.907-2.898-18.061-11.806-20.448    c-8.894-2.384-18.061,2.898-20.448,11.805l-4.321,16.127l-32.253-8.642l17.284-64.508c11.924,3.196,155.942,41.785,161.268,43.212    l-17.284,64.508L310.6,387.083z"/>
	</g>
</g>
<g>
</g>
<g>
</g>
<g>
</g>
<g>
</g>
<g>
</g>
<g>
</g>
<g>
</g>
<g>
</g>
<g>
</g>
<g>
</g>
<g>
</g>
<g>
</g>
<g>
</g>
<g>
</g>
<g>
</g>
</svg>
