<?xml version="1.0" encoding="iso-8859-1"?>
<!-- Generator: Adobe Illustrator 19.0.0, SVG Export Plug-In . SVG Version: 6.00 Build 0)  -->
<svg xmlns="http://www.w3.org/2000/svg" xmlns:xlink="http://www.w3.org/1999/xlink" version="1.1" id="Layer_1" x="0px" y="0px" viewBox="0 0 512 512" style="enable-background:new 0 0 512 512;" xml:space="preserve">
<g>
	<g>
		<path d="M362.001,236.325l14.574-25.504c23.658-41.399,16.771-102.379-33.153-127.341L322.784,73.16V50.087    C322.784,22.469,300.315,0,272.697,0h-33.391c-27.618,0-50.087,22.469-50.087,50.087v23.072l-20.636,10.319    c-49.717,24.858-56.936,85.728-33.155,127.342l14.574,25.505c15.239,26.666,13.363,59.896-4.777,84.656    c-15.121,20.638-22.788,41.829-22.788,63.018c0,27.618,22.469,50.087,50.087,50.087h66.783v44.522h-50.087    c-9.22,0-16.696,7.475-16.696,16.696S179.998,512,189.218,512h133.565c9.22,0,16.696-7.475,16.696-16.696    s-7.475-16.696-16.696-16.696h-50.087v-44.522h66.783c27.618,0,50.087-22.469,50.087-50.12c0-21.156-7.668-42.347-22.788-62.985    C348.636,296.222,346.762,262.992,362.001,236.325z M339.48,400.696H172.524c-9.206,0-16.696-7.49-16.696-16.729    c0-13.907,5.495-28.458,16.332-43.25c25.924-35.38,28.605-82.859,6.834-120.958l-14.574-25.504    c-14.078-24.637-13.281-64.72,19.096-80.91l29.865-14.933c5.656-2.827,9.229-8.608,9.229-14.933V50.087    c0-9.206,7.49-16.696,16.696-16.696h33.391c9.206,0,16.696,7.49,16.696,16.696v33.391c0,6.324,3.573,12.105,9.229,14.933    l29.867,14.934c32.27,16.137,33.228,56.173,19.094,80.909l-14.574,25.504c-21.772,38.098-19.089,85.578,6.834,120.958    c10.837,14.791,16.332,29.342,16.332,43.284C356.176,393.206,348.686,400.696,339.48,400.696z"/>
	</g>
</g>
<g>
</g>
<g>
</g>
<g>
</g>
<g>
</g>
<g>
</g>
<g>
</g>
<g>
</g>
<g>
</g>
<g>
</g>
<g>
</g>
<g>
</g>
<g>
</g>
<g>
</g>
<g>
</g>
<g>
</g>
</svg>
