<?xml version="1.0" encoding="iso-8859-1"?>
<!-- Generator: Adobe Illustrator 19.0.0, SVG Export Plug-In . SVG Version: 6.00 Build 0)  -->
<svg xmlns="http://www.w3.org/2000/svg" xmlns:xlink="http://www.w3.org/1999/xlink" version="1.1" id="Layer_1" x="0px" y="0px" viewBox="0 0 512 512" style="enable-background:new 0 0 512 512;" xml:space="preserve">
<g>
	<g>
		<path d="M439.497,366.356l-43.376-14.457c-6.098-2.034-10.845-6.914-12.713-13.062c-2.084-7.191-83.124-286.849-87.716-302.691    C289.527,14.864,269.744,0,247.585,0H115.528c-32.781,0-56.743,30.948-48.47,62.71l21.806,83.731    c-1.909,9.173-21.811,16.619-34.539,28.121c-18.645,16.85-29.266,37.048-31.568,60.034c-0.742,7.405-0.479,26.871-0.127,29.33    l33.169,233.739C56.973,505.891,64.018,512,72.327,512h33.391c8.309,0,15.352-6.109,16.528-14.335l21.457-150.197    c31.127,7.155,54.962,29.623,60.886,59.457C216.678,467.809,272.569,512,337.483,512h79.192c37.928,0,73.044-29.423,73.044-75.965    C489.718,404.37,469.535,376.369,439.497,366.356z M91.238,478.609h-4.432L65.154,327.041c13.41,9.331,28.966,15.295,45.27,17.27    L91.238,478.609z M416.674,478.609h-79.192c-49.03,0-91.145-32.883-100.142-78.189c-9.678-48.74-53.9-88.686-115.02-88.767    c-31.547-0.042-59.019-22.373-65.323-53.227c-0.021-0.11-0.038-0.22-0.061-0.329c-1.298-6.517-1.644-13.29-0.955-20.173    c1.45-14.485,8.426-27.468,20.732-38.588c12.167-10.996,45.699-21.916,45.7-54.426c0-3.053,1.498,3.616-23.042-90.614    c-2.754-10.576,5.217-20.904,16.157-20.904h132.057c7.386,0,13.98,4.954,16.036,12.048l18.119,62.526h-44.4    c-9.22,0-16.696,7.475-16.696,16.696s7.475,16.696,16.696,16.696h54.077l9.677,33.391h-44.4c-9.22,0-16.696,7.475-16.696,16.696    s7.475,16.696,16.696,16.696h54.077l9.677,33.391h-44.4c-9.22,0-16.696,7.475-16.696,16.696c0,9.22,7.475,16.696,16.696,16.696    h54.077l9.676,33.391h-44.4c-9.22,0-16.696,7.475-16.696,16.696c0,9.22,7.475,16.696,16.696,16.696h54.077l1.888,6.516    c0.015,0.051,0.029,0.101,0.045,0.151c4.973,16.572,17.74,29.733,34.155,35.206l43.378,14.458    C471.353,412.171,462.498,478.609,416.674,478.609z"/>
	</g>
</g>
<g>
</g>
<g>
</g>
<g>
</g>
<g>
</g>
<g>
</g>
<g>
</g>
<g>
</g>
<g>
</g>
<g>
</g>
<g>
</g>
<g>
</g>
<g>
</g>
<g>
</g>
<g>
</g>
<g>
</g>
</svg>
