<?xml version="1.0" encoding="iso-8859-1"?>
<!-- Generator: Adobe Illustrator 19.0.0, SVG Export Plug-In . SVG Version: 6.00 Build 0)  -->
<svg xmlns="http://www.w3.org/2000/svg" xmlns:xlink="http://www.w3.org/1999/xlink" version="1.1" id="Layer_1" x="0px" y="0px" viewBox="0 0 512 512" style="enable-background:new 0 0 512 512;" xml:space="preserve">
<g>
	<g>
		<path d="M495.557,88.431c7.013-7.013,6.427-18.774-1.554-24.982C440.655,21.94,377.008,0,309.942,0    C158.081,0,29.478,114.223,11.678,265.175c-0.004,0.036-0.003,0.071-0.007,0.107c-1.083,9.829,6.58,18.433,16.588,18.433    c24.058,0,91.677,0,115.561,0c-0.548,5.493-0.833,11.061-0.833,16.696v128.111c0,27.618-22.469,50.087-50.087,50.087    c-9.22,0-16.696,7.475-16.696,16.696S83.679,512,92.9,512h133.565c9.22,0,16.584-7.475,16.584-16.696v-89.043    c0-14.274,6.025-30.071,15.931-42.258c3.573-4.395,9.593-10.642,17.57-14.745v79.263c0,46.03,37.448,83.478,83.478,83.478    c9.22,0,16.584-7.475,16.584-16.696V345.043h83.59c9.22,0,16.584-7.475,16.584-16.696v-66.783c0-16.213-7.638-30.643-19.62-39.804    c-10.741-20.044-25.44-37.646-43.159-51.782C430.862,153.126,478.598,105.39,495.557,88.431z M116.242,250.435    c22.589-86.902,102.625-150.261,193.702-150.261c35.26,0,69.386,9.239,99.775,26.874l-24.461,24.461    c-23.249-11.763-48.991-17.944-75.315-17.944c-74.616,0-137.952,49.205-159.277,116.87H116.242z M248.43,327.728    c-23.619,18.34-38.66,49.547-38.66,78.533v72.348h-50.127c10.503-13.961,16.624-31.311,16.624-50.087v-128    c0-73.648,60.029-133.565,133.677-133.565c37.099,0,73.581,15.26,99.629,44.522H293.248c-36.824,0-66.783,29.959-66.783,66.783    C226.465,297.853,234.946,315.5,248.43,327.728z M343.333,475.748c-19.435-6.89-33.503-25.459-33.503-47.226v-83.478h33.503    V475.748z M426.812,244.87c9.206,0,16.696,7.49,16.696,16.696v50.087H293.247c-18.412,0-33.39-14.979-33.39-33.391    c0-18.412,14.978-33.391,33.39-33.391H426.812z M309.942,66.783c-109.47,0-204.524,76.625-228.048,183.652H47.703    C71.401,125.449,180.986,33.391,309.942,33.391c53.252,0,104.097,15.589,148.169,45.263l-24.083,24.083    C396.707,79.171,354.097,66.783,309.942,66.783z"/>
	</g>
</g>
<g>
</g>
<g>
</g>
<g>
</g>
<g>
</g>
<g>
</g>
<g>
</g>
<g>
</g>
<g>
</g>
<g>
</g>
<g>
</g>
<g>
</g>
<g>
</g>
<g>
</g>
<g>
</g>
<g>
</g>
</svg>
