<?xml version="1.0" encoding="iso-8859-1"?>
<!-- Generator: Adobe Illustrator 19.0.0, SVG Export Plug-In . SVG Version: 6.00 Build 0)  -->
<svg xmlns="http://www.w3.org/2000/svg" xmlns:xlink="http://www.w3.org/1999/xlink" version="1.1" id="Layer_1" x="0px" y="0px" viewBox="0 0 512.001 512.001" style="enable-background:new 0 0 512.001 512.001;" xml:space="preserve">
<g>
	<g>
		<path d="M256.001,110.954H205.87c-9.229,0-16.71,7.482-16.71,16.71s7.482,16.71,16.71,16.71h50.131    c9.229,0,16.71-7.482,16.71-16.71S265.229,110.954,256.001,110.954z"/>
	</g>
</g>
<g>
	<g>
		<path d="M139.029,110.954H88.898c-9.229,0-16.71,7.482-16.71,16.71s7.482,16.71,16.71,16.71h50.131    c9.229,0,16.71-7.482,16.71-16.71S148.257,110.954,139.029,110.954z"/>
	</g>
</g>
<g>
	<g>
		<path d="M229.163,212.567c-8.482-3.636-18.307,0.295-21.942,8.776c-6.153,14.357-19.152,22.929-34.772,22.929    s-28.618-8.571-34.772-22.929c-3.635-8.481-13.458-12.41-21.942-8.776c-8.483,3.636-12.412,13.46-8.776,21.942    c11.416,26.636,36.51,43.184,65.49,43.184s54.074-16.548,65.49-43.184C241.574,226.027,237.645,216.202,229.163,212.567z"/>
	</g>
</g>
<g>
	<g>
		<path d="M405.042,388.082c-11.415-26.637-36.51-43.184-65.49-43.184s-54.074,16.548-65.49,43.184    c-3.636,8.483,0.294,18.307,8.776,21.942c8.482,3.637,18.307-0.294,21.942-8.776c6.153-14.357,19.151-22.929,34.772-22.929    c15.621,0,28.618,8.571,34.772,22.929c3.631,8.471,13.444,12.416,21.942,8.776C404.748,406.387,408.678,396.565,405.042,388.082z"/>
	</g>
</g>
<g>
	<g>
		<path d="M423.103,244.636h-50.131c-9.229,0-16.71,7.482-16.71,16.71c0,9.229,7.482,16.71,16.71,16.71h50.131    c9.229,0,16.71-7.482,16.71-16.71C439.814,252.118,432.332,244.636,423.103,244.636z"/>
	</g>
</g>
<g>
	<g>
		<path d="M460.904,136.077c-38.953,15.409-79.705,23.145-121.352,23.111V33.323c0-23.586-23.8-39.618-45.75-30.93    c-39.132,15.48-80.235,23.218-121.351,23.217c-41.116-0.002-82.246-7.745-121.377-23.228h-0.001    C29.161-6.284,5.347,9.752,5.347,33.358v140.769c0,47.323,16.308,93.717,45.921,130.631    c29.612,36.914,71.362,62.897,117.557,73.163c2.387,0.531,4.863,0.531,7.25,0c2.628-0.584,5.24-1.225,7.838-1.911    c10.544,30.496,28.04,58.24,51.264,80.988c27.83,27.26,62.669,46.141,100.751,54.605c2.386,0.531,4.863,0.531,7.25,0    c46.198-10.266,87.947-36.25,117.559-73.165c29.593-36.891,45.899-83.246,45.919-130.538c0-0.01,0-0.019,0-0.028V167.005    C506.655,143.419,482.855,127.388,460.904,136.077z M172.449,344.451C93.547,325.213,38.767,255.7,38.767,174.127l0.003-140.669    c0.002,0.001,0.004,0.002,0.007,0.003c86.191,34.102,181.125,34.106,267.318,0.011c0.013-0.006,0.024-0.01,0.036-0.014v140.669    C306.132,255.828,251.21,325.248,172.449,344.451z M473.234,307.809L473.234,307.809c0,81.573-54.78,151.086-133.681,170.324    c-58.522-14.282-104.808-56.802-124.133-113.211c30.319-13.481,57.296-34.092,78.213-60.167    c25.74-32.088,41.421-71.337,45.083-112.136c46.158,0.148,91.32-8.394,134.482-25.466c0.013-0.006,0.025-0.01,0.036-0.015V307.809    z"/>
	</g>
</g>
<g>
</g>
<g>
</g>
<g>
</g>
<g>
</g>
<g>
</g>
<g>
</g>
<g>
</g>
<g>
</g>
<g>
</g>
<g>
</g>
<g>
</g>
<g>
</g>
<g>
</g>
<g>
</g>
<g>
</g>
</svg>
