<?xml version="1.0" encoding="iso-8859-1"?>
<!-- Generator: Adobe Illustrator 19.0.0, SVG Export Plug-In . SVG Version: 6.00 Build 0)  -->
<svg xmlns="http://www.w3.org/2000/svg" xmlns:xlink="http://www.w3.org/1999/xlink" version="1.1" id="Layer_1" x="0px" y="0px" viewBox="0 0 512 512" style="enable-background:new 0 0 512 512;" xml:space="preserve">
<g>
	<g>
		<path d="M330.957,120.179c3.083-6.27,5.409-12.976,6.842-20.005h51.767c9.22,0,16.696-7.475,16.696-16.696    s-7.475-16.696-16.696-16.696h-51.767C330.042,28.725,296.314,0,256,0c-40.313,0-74.042,28.725-81.799,66.783h-51.767    c-9.22,0-16.696,7.475-16.696,16.696s7.475,16.696,16.696,16.696h51.767c1.432,7.029,3.76,13.735,6.842,20.005    c-46.299,26.563-75.304,75.778-75.304,130.256V385.74c0,32.796,26.682,59.478,59.478,59.478h40.696v16.696    C205.913,489.531,228.382,512,256,512c27.618,0,50.087-22.469,50.087-50.087v-16.696h40.696c32.796,0,59.478-26.682,59.478-59.478    V250.435C406.261,195.957,377.256,146.741,330.957,120.179z M256,33.391c27.618,0,50.087,22.469,50.087,50.087    c0,27.618-22.469,50.087-50.087,50.087c-27.618,0-50.087-22.469-50.087-50.087C205.913,55.86,228.382,33.391,256,33.391z     M272.696,461.913c0,9.206-7.49,16.696-16.696,16.696s-16.696-7.49-16.696-16.696v-83.478h33.391V461.913z M208.774,345.043    c6.891-19.435,25.46-33.391,47.226-33.391c21.768,0,40.336,13.956,47.226,33.391H208.774z M372.87,385.74    c0,14.384-11.703,26.086-26.086,26.086h-40.696v-33.391h16.696c9.22,0,16.696-7.475,16.696-16.696    c0-46.726-37.836-83.478-83.478-83.478c-46.03,0-83.478,37.448-83.478,83.478c0,9.22,7.475,16.696,16.696,16.696h16.696v33.391    h-40.696c-14.384,0-26.086-11.703-26.086-26.086V250.435c0-43.955,24.272-83.506,62.657-103.555    c14.598,12.501,33.532,20.077,54.213,20.077s39.615-7.577,54.213-20.077c38.384,20.049,62.657,59.6,62.657,103.555V385.74z"/>
	</g>
</g>
<g>
</g>
<g>
</g>
<g>
</g>
<g>
</g>
<g>
</g>
<g>
</g>
<g>
</g>
<g>
</g>
<g>
</g>
<g>
</g>
<g>
</g>
<g>
</g>
<g>
</g>
<g>
</g>
<g>
</g>
</svg>
