<?xml version="1.0" encoding="iso-8859-1"?>
<!-- Generator: Adobe Illustrator 19.0.0, SVG Export Plug-In . SVG Version: 6.00 Build 0)  -->
<svg xmlns="http://www.w3.org/2000/svg" xmlns:xlink="http://www.w3.org/1999/xlink" version="1.1" id="Layer_1" x="0px" y="0px" viewBox="0 0 512 512" style="enable-background:new 0 0 512 512;" xml:space="preserve">
<g>
	<g>
		<path d="M477.934,155.152c-17.384,17.383-43.916,26.883-78.943,28.307c9.884-12.761,18.168-27.6,24.695-44.406    c14.215-36.604,15.092-69.675,15.122-71.066c0.207-9.443-7.501-17.27-17.055-17.056c-2.763,0.06-59.517,1.716-107.041,33.703    c-14.808-45.752-44.969-77.725-46.651-79.482C264.911,1.861,260.555,0,256,0c-4.555,0-8.911,1.861-12.061,5.15    c-1.682,1.758-31.843,33.731-46.651,79.484C149.764,52.646,93.009,50.99,90.248,50.93c-9.524-0.207-17.263,7.58-17.056,17.056    c0.076,3.46,2.006,66.777,39.689,115.466c-34.962-1.441-61.45-10.939-78.813-28.301c-10.476-10.476-28.502-3.059-28.502,11.806    c0,7.707,0,321.101,0,328.348c0,9.22,7.475,16.696,16.696,16.696s16.696-7.475,16.696-16.696V382.224    c21.229,21.685,50.806,35.168,83.478,35.168c59.631,0,78.893-30.513,132.386-26.726c0.784,0.056,1.573,0.056,2.356,0    c53.462-3.779,72.79,26.726,132.388,26.726c64.442,0,116.87-52.428,116.87-116.87V166.957    C506.435,152.142,488.445,144.64,477.934,155.152z M322.213,120.799c26.152-22.362,60.226-31.062,81.162-34.413    c-4.532,28.364-18.955,80.846-64.482,105.402c-11.118,3.406-22.194,7.81-33.073,13.253    C318.13,178.583,324.811,150.234,322.213,120.799z M256.03,43.196c13.467,18.532,33.361,52.349,33.361,90.369    c0,37.832-19.956,71.773-33.421,90.369c-13.467-18.532-33.361-52.349-33.361-90.369C222.609,95.733,242.564,61.792,256.03,43.196z     M108.659,86.341c20.899,3.31,54.879,11.971,81.13,34.452c-2.599,29.437,4.082,57.787,16.393,84.246    c-10.769-5.387-21.996-9.873-33.3-13.322C127.692,167.408,113.23,114.755,108.659,86.341z M473.045,300.522h-0.001    c0,46.03-37.448,83.478-83.478,83.478c-50.928,0-71.989-30.655-133.565-26.722C194.415,353.346,173.377,384,122.435,384    c-46.03,0-83.478-37.448-83.478-83.478c0-11.057,0-89.886,0-101.025c10.918,5.684,23.122,10.026,36.536,12.981    c20.716,4.566,39.095,4.566,46.943,4.566c30.414,0,67.782,13.401,95.202,34.14c13.737,10.39,26.131,15.604,37.888,15.94    c0.116,0.003,0.232-0.001,0.348,0c0.043,0,0.085,0.007,0.128,0.007c0.043,0,0.085-0.007,0.128-0.007    c0.116-0.001,0.232,0.003,0.348,0c11.757-0.335,24.15-5.55,37.888-15.94c9.137-6.911,19.381-13.001,30.102-18.058    c9.544-2.55,18.597-5.969,27.109-10.252c36.167-10.417,46.291-1.881,84.932-10.396c13.413-2.955,25.619-7.297,36.536-12.981    V300.522z"/>
	</g>
</g>
<g>
	<g>
		<path d="M434.07,252.846c-3.551-3.168-8.288-4.665-13.013-4.128c-9.954,1.14-20.55,1.717-31.492,1.717    c-19.334,0-50.044,8.465-75.086,27.386c-8.564,6.487-17.781,11.567-27.392,15.101c-7.201,2.647-11.67,9.86-10.835,17.487    c0.835,7.627,6.76,13.702,14.363,14.728c45.584,6.155,65.358,25.472,98.951,25.472c27.618,0,50.087-22.469,50.087-50.087v-35.218    C439.652,260.546,437.622,256.013,434.07,252.846z M406.261,300.522c0,9.206-7.49,16.696-16.696,16.696    c-16.197,0-27.049-6.795-51.802-15.039c19.319-13.413,41.265-18.352,51.802-18.352c5.648,0,11.224-0.139,16.696-0.416V300.522z"/>
	</g>
</g>
<g>
	<g>
		<path d="M224.913,292.922c-9.606-3.532-18.831-8.615-27.419-15.108c-25.011-18.913-55.72-27.379-75.059-27.379    c-10.942,0-21.539-0.578-31.491-1.717c-9.936-1.133-18.596,6.647-18.596,16.587v35.218c0,27.618,22.469,50.087,50.087,50.087    c33.685,0,53.153-19.284,98.953-25.471c7.602-1.026,13.527-7.102,14.362-14.729C236.583,302.782,232.114,295.57,224.913,292.922z     M122.435,317.217c-9.206,0-16.696-7.49-16.696-16.696V283.41c5.473,0.277,11.048,0.416,16.696,0.416    c10.541,0,32.492,4.941,51.798,18.359C149.008,310.586,138.723,317.217,122.435,317.217z"/>
	</g>
</g>
<g>
</g>
<g>
</g>
<g>
</g>
<g>
</g>
<g>
</g>
<g>
</g>
<g>
</g>
<g>
</g>
<g>
</g>
<g>
</g>
<g>
</g>
<g>
</g>
<g>
</g>
<g>
</g>
<g>
</g>
</svg>
