<?xml version="1.0" encoding="iso-8859-1"?>
<!-- Generator: Adobe Illustrator 19.0.0, SVG Export Plug-In . SVG Version: 6.00 Build 0)  -->
<svg xmlns="http://www.w3.org/2000/svg" xmlns:xlink="http://www.w3.org/1999/xlink" version="1.1" id="Layer_1" x="0px" y="0px" viewBox="0 0 512 512" style="enable-background:new 0 0 512 512;" xml:space="preserve">
<g>
	<g>
		<circle cx="217.043" cy="261.565" r="16.696"/>
	</g>
</g>
<g>
	<g>
		<circle cx="283.826" cy="261.565" r="16.696"/>
	</g>
</g>
<g>
	<g>
		<path d="M217.043,411.826c-27.618,0-50.087-22.469-50.087-50.087c0-9.22-7.475-16.696-16.696-16.696s-16.696,7.475-16.696,16.696    c0,46.03,37.448,83.478,83.478,83.478c9.22,0,16.696-7.475,16.696-16.696S226.264,411.826,217.043,411.826z"/>
	</g>
</g>
<g>
	<g>
		<path d="M468.838,317.239l-101.534-3.079V211.478H384c9.22,0,16.696-7.475,16.696-16.696c0-9.22-7.475-16.696-16.696-16.696    h-24.378L256.858,21.494C248.025,8.035,233.141,0,217.043,0c-16.098,0-30.982,8.035-39.815,21.494L74.465,178.087H50.087    c-9.22,0-16.696,7.475-16.696,16.696c0,9.22,7.475,16.696,16.696,16.696h16.696v33.391C29.959,244.87,0,274.828,0,311.652    s29.959,66.783,66.783,66.783h0.933C76.048,453.461,139.833,512,217.043,512c33.904,0,67.149-11.618,93.609-32.713    c22.653-18.06,39.691-42.485,48.866-69.732l109.32-3.315C493.042,405.506,512,385.959,512,361.739    S493.042,317.972,468.838,317.239z M66.783,294.957v50.087c-18.412,0-33.391-14.979-33.391-33.391    c0-18.412,14.979-33.391,33.391-33.391V294.957z M205.146,39.815c2.639-4.023,7.087-6.423,11.897-6.423    c4.811,0,9.258,2.401,11.897,6.423l90.742,138.272H150.261h-35.857L205.146,39.815z M100.174,261.565v-50.087h33.391v20.87    c0,20.978-14.141,38.714-33.391,44.178V261.565z M217.043,478.609c-64.442,0-116.87-52.428-116.87-116.87v-51.085    c37.799-6.023,66.783-38.839,66.783-78.306v-20.87h166.956v101.67l-48.557-1.473c-0.509-0.016-1.017-0.023-1.53-0.023    c-27.618,0-50.087,22.469-50.087,50.087s22.469,50.087,50.087,50.087c0.513,0,1.022-0.008,1.532-0.023l37.881-1.149    C304.511,451.553,263.536,478.609,217.043,478.609z M467.827,372.864l-183.48,5.563c-9.395,0.295-17.217-7.308-17.217-16.688    c0-9.206,7.49-16.696,16.696-16.696c0.174,0,0.347,0.002,0.521,0.008l183.481,5.563c5.944,0.18,10.781,5.17,10.781,11.125    S473.771,372.684,467.827,372.864z"/>
	</g>
</g>
<g>
</g>
<g>
</g>
<g>
</g>
<g>
</g>
<g>
</g>
<g>
</g>
<g>
</g>
<g>
</g>
<g>
</g>
<g>
</g>
<g>
</g>
<g>
</g>
<g>
</g>
<g>
</g>
<g>
</g>
</svg>
