<?xml version="1.0" encoding="iso-8859-1"?>
<!-- Generator: Adobe Illustrator 19.0.0, SVG Export Plug-In . SVG Version: 6.00 Build 0)  -->
<svg xmlns="http://www.w3.org/2000/svg" xmlns:xlink="http://www.w3.org/1999/xlink" version="1.1" id="Layer_1" x="0px" y="0px" viewBox="0 0 512 512" style="enable-background:new 0 0 512 512;" xml:space="preserve">
<g>
	<g>
		<path d="M289.391,244.87h-66.783c-9.22,0-16.696,7.475-16.696,16.696c0,9.22,7.475,16.696,16.696,16.696h66.783    c9.22,0,16.696-7.475,16.696-16.696C306.087,252.345,298.612,244.87,289.391,244.87z"/>
	</g>
</g>
<g>
	<g>
		<path d="M416.648,185.276c-3.119-4.503-8.248-7.189-13.725-7.189h-30.129C370.859,81.248,322.001,0,256,0    C189.518,0,141.132,81.98,139.21,178.087h-30.132c-5.477,0-10.606,2.687-13.725,7.189    C41.06,263.664,15.672,356.559,20.384,448.643C22.202,484.171,51.633,512,87.386,512h337.228    c35.752,0,65.183-27.829,67.002-63.356C496.319,356.756,471.053,263.828,416.648,185.276z M256,33.391    c42.232,0,81.68,61.984,83.418,144.696H172.582C174.319,95.366,213.774,33.391,256,33.391z M424.614,478.609H87.386    c-16.594,0-32.729-12.16-33.725-33.503h404.678C457.362,466.034,441.607,478.609,424.614,478.609z M53.557,411.826    c2.836-71.057,25.146-140.866,64.385-200.348c9.063,0,267.848,0,276.115,0c39.238,59.482,61.549,129.291,64.385,200.348H53.557z"/>
	</g>
</g>
<g>
</g>
<g>
</g>
<g>
</g>
<g>
</g>
<g>
</g>
<g>
</g>
<g>
</g>
<g>
</g>
<g>
</g>
<g>
</g>
<g>
</g>
<g>
</g>
<g>
</g>
<g>
</g>
<g>
</g>
</svg>
