<?xml version="1.0" encoding="iso-8859-1"?>
<!-- Generator: Adobe Illustrator 19.0.0, SVG Export Plug-In . SVG Version: 6.00 Build 0)  -->
<svg xmlns="http://www.w3.org/2000/svg" xmlns:xlink="http://www.w3.org/1999/xlink" version="1.1" id="Layer_1" x="0px" y="0px" viewBox="0 0 512.001 512.001" style="enable-background:new 0 0 512.001 512.001;" xml:space="preserve">
<g>
	<g>
		<path d="M502.884,41.263c-7.605-19.958-23.118-34.259-42.56-39.237c-19.051-4.879-50.359-3.217-92.648,31.015H144.326    C102.035-1.19,70.727-2.852,51.678,2.027C32.236,7.005,16.723,21.306,9.117,41.263c-6.047,15.871-4.097,35.45,5.642,56.621    c14.56,31.655,43.15,59.919,74.721,74.592c4.725,65.094,49.029,160.169,116.397,193.63v45.649h-0.74    c-46.064,0-83.539,37.476-83.539,83.539c0,9.227,7.481,16.708,16.708,16.708h235.388c9.227,0,16.708-7.481,16.708-16.708    c0-46.064-37.587-83.539-83.651-83.539h-0.74v-45.649c67.927-33.738,111.821-129.058,116.507-193.63    c31.571-14.672,60.161-42.936,74.721-74.592C506.98,76.712,508.931,57.134,502.884,41.263z M155.044,66.458h201.943    c0,26.607,3.948,54.288,15.858,77.97H140.498C153.627,119.826,154.975,92.327,155.044,66.458z M102.035,141.472    c-26.907-12.937-47.631-37.36-56.919-57.553c-5.733-12.463-7.473-23.674-4.775-30.756c2.647-6.946,8.2-15.84,19.624-18.765    C69.328,32,89.428,32.12,121.616,57.66C121.73,90.545,121.716,119.384,102.035,141.472z M123.53,177.844h34.526    c2.746,42.929,15.36,97.156,33.456,137.425C155.428,281.061,129.06,223.522,123.53,177.844z M191.528,177.844h47.764v153.995    C215.124,300.447,195.234,230.52,191.528,177.844z M256.001,378.338c5.597,0,11.171-0.45,16.708-1.337v34.752h-33.527v-34.752    C244.717,377.888,250.403,378.338,256.001,378.338z M306.863,445.17c21.783,0,40.365,13.967,47.261,33.416H157.878    c6.896-19.449,25.478-33.416,47.261-33.416H306.863z M272.597,331.839V177.732h47.876    C316.943,227.912,297.987,298.86,272.597,331.839z M320.49,315.269c18.214-40.534,30.727-94.875,33.456-137.537h34.526    C382.977,223.113,356.853,280.797,320.49,315.269z M466.884,83.919c-9.255,20.122-29.866,44.441-56.633,57.413    c-18.283-22.752-19.848-60.123-19.848-72.008V57.645c32.177-25.523,52.271-25.641,61.633-23.247    c11.423,2.925,16.976,11.818,19.624,18.764C474.357,60.244,472.617,71.456,466.884,83.919z"/>
	</g>
</g>
<g>
</g>
<g>
</g>
<g>
</g>
<g>
</g>
<g>
</g>
<g>
</g>
<g>
</g>
<g>
</g>
<g>
</g>
<g>
</g>
<g>
</g>
<g>
</g>
<g>
</g>
<g>
</g>
<g>
</g>
</svg>
