<?xml version="1.0" encoding="iso-8859-1"?>
<!-- Generator: Adobe Illustrator 19.0.0, SVG Export Plug-In . SVG Version: 6.00 Build 0)  -->
<svg xmlns="http://www.w3.org/2000/svg" xmlns:xlink="http://www.w3.org/1999/xlink" version="1.1" id="Layer_1" x="0px" y="0px" viewBox="0 0 512 512" style="enable-background:new 0 0 512 512;" xml:space="preserve">
<g>
	<g>
		<path d="M511.848,208.795C507.727,96.789,416.315,4.842,304.239,0.192C190.474-4.53,94.81,78.521,79.934,187.102    c-4.955,36.167-21.89,72.351-50.335,107.545C7.13,322.448-3.092,357.506,0.816,393.364c6.708,61.561,56.26,111.111,117.82,117.82    c35.308,3.849,70.79-5.937,99.326-29.28c34.372-28.114,70.249-44.874,106.635-49.814    C432.651,417.424,516.038,322.613,511.848,208.795z M320.106,399.005c-42.589,5.781-84.067,24.978-123.284,57.056    c-20.911,17.103-47.389,24.889-74.567,21.929c-46.107-5.024-83.219-42.135-88.243-88.242    c-2.937-26.957,4.718-53.276,21.559-74.111c32.326-39.996,51.654-81.715,57.449-124.001    C125.91,97.542,207.543,29.595,302.856,33.556c94.985,3.94,172.128,81.455,175.626,176.47    C481.978,305.031,413.892,386.273,320.106,399.005z"/>
	</g>
</g>
<g>
	<g>
		<path d="M445.11,211.255c-2.814-76.421-67.25-141.171-143.681-144.34c-78.946-3.089-145.079,54.454-155.333,129.25    c-6.625,48.4-28.345,95.657-64.557,140.458c-7.932,9.81-16.856,26.365-14.33,49.506c3.285,30.16,28.505,55.381,58.653,58.664    c18.432,2.015,35.883-3.174,49.818-14.581c44.065-36.039,91.147-57.67,139.939-64.294    C392.302,355.503,447.971,289.012,445.11,211.255z M311.125,332.832c-54.992,7.464-107.675,31.531-156.591,71.537    c-6.79,5.559-15.412,8.289-25.046,7.229c-14.708-1.601-27.483-14.377-29.085-29.088c-1.027-9.416,1.362-17.792,7.105-24.894    c40.095-49.605,64.209-102.402,71.671-156.918c7.881-57.489,58.744-102.851,120.909-100.418    c59.38,2.462,109.468,52.797,111.654,112.205C413.967,272.999,370.711,324.737,311.125,332.832z"/>
	</g>
</g>
<g>
	<g>
		<path d="M294.958,144.695c-27.618,0-50.087,22.469-50.087,50.087c0,27.618,22.469,50.087,50.087,50.087    c27.618,0,50.087-22.469,50.087-50.087C345.045,167.164,322.576,144.695,294.958,144.695z M294.958,211.478    c-9.206,0-16.696-7.49-16.696-16.696s7.49-16.696,16.696-16.696s16.696,7.49,16.696,16.696S304.164,211.478,294.958,211.478z"/>
	</g>
</g>
<g>
</g>
<g>
</g>
<g>
</g>
<g>
</g>
<g>
</g>
<g>
</g>
<g>
</g>
<g>
</g>
<g>
</g>
<g>
</g>
<g>
</g>
<g>
</g>
<g>
</g>
<g>
</g>
<g>
</g>
</svg>
