<?xml version="1.0" encoding="iso-8859-1"?>
<!-- Generator: Adobe Illustrator 19.0.0, SVG Export Plug-In . SVG Version: 6.00 Build 0)  -->
<svg xmlns="http://www.w3.org/2000/svg" xmlns:xlink="http://www.w3.org/1999/xlink" version="1.1" id="Layer_1" x="0px" y="0px" viewBox="0 0 512 512" style="enable-background:new 0 0 512 512;" xml:space="preserve">
<g>
	<g>
		<path d="M492.522,478.609h-50.087v-116.87v-19.733c35.253-9.769,61.217-42.12,61.217-80.441    c0-28.808-16.929-155.046-41.971-217.97C454.233,24.881,441.826,0,420.174,0c-13.26,0-23.047,9.335-30.356,20.866    C381.977,8.742,372.016,0,358.957,0c-21.137,0-36.549,21.93-51.536,73.328c-10.643,36.501-18.323,78.751-22.746,106.553    c-5.449,2.748-9.196,8.381-9.196,14.901v50.087h-34.302c-3.797-44.827-19.354-146.731-41.061-201.274    C192.668,24.881,180.261,0,158.609,0c-16.073,0-27.684,13.467-36.474,30.776C114.46,15.201,103.185,0,86.261,0    C64.609,0,52.202,24.881,44.753,43.596C19.718,106.503,2.783,232.743,2.783,261.565c0,42.254,31.565,77.253,72.348,82.714v134.33    H25.044c-9.22,0-16.696,7.475-16.696,16.696S15.823,512,25.044,512c25.301,0,442.263,0,467.478,0    c9.22,0,16.696-7.475,16.696-16.696S501.742,478.609,492.522,478.609z M337.101,91.118C347.197,54,355.286,40.2,359.135,35.314    c2.636,3.201,7.258,10.41,13.17,26.092c-11.326,34.926-20.284,80.292-26.118,116.681h-27.393    C322.765,154.044,328.944,121.099,337.101,91.118z M308.87,211.367h32.444c-1.682,12.847-2.935,24.376-3.708,33.503H308.87    V211.367z M158.425,35.318c2.822,3.59,7.932,11.98,14.44,30.837c17.318,50.18,30.854,135.219,34.818,178.715h-38.854    c-3.191-37.679-14.317-112.368-29.824-167.339C142.018,73.107,148.506,47.359,158.425,35.318z M36.174,261.565    c0-23.936,14.582-133.844,35.83-195.41c6.37-18.456,11.4-26.887,14.257-30.602c2.857,3.715,7.887,12.146,14.257,30.601    c21.241,61.55,35.83,171.46,35.83,195.412c0,27.618-22.469,50.087-50.087,50.087C58.643,311.652,36.174,289.183,36.174,261.565z     M141.913,478.609h-33.391V342.006c1.737-0.482,3.453-1.016,5.143-1.606c3.07,2.943,7.194,4.644,11.552,4.644h16.696V478.609z     M167.323,281.471l1.605-3.21h169.449c2.513,12.33,7.755,23.68,15.062,33.391c-15.074,0-194.377,0-200.44,0    C159.665,302.791,164.598,292.561,167.323,281.471z M409.043,361.739v116.87h-33.391v-16.696c0-9.22-7.475-16.696-16.696-16.696    c-9.22,0-16.696,7.475-16.696,16.696v16.696H308.87v-16.696c0-9.22-7.475-16.696-16.696-16.696    c-9.22,0-16.696,7.475-16.696,16.696v16.696h-33.391v-16.696c0-9.22-7.475-16.696-16.696-16.696s-16.696,7.475-16.696,16.696    v16.696h-33.391V345.043h233.739V361.739z M370.087,261.565c0-23.936,14.582-133.844,35.83-195.41    c6.369-18.455,11.4-26.886,14.257-30.601c2.857,3.715,7.887,12.146,14.257,30.601c21.241,61.549,35.83,171.459,35.83,195.41    c0,27.618-22.469,50.087-50.087,50.087C392.556,311.652,370.087,289.183,370.087,261.565z"/>
	</g>
</g>
<g>
	<g>
		<circle cx="225.391" cy="394.463" r="16.696"/>
	</g>
</g>
<g>
	<g>
		<circle cx="292.174" cy="394.463" r="16.696"/>
	</g>
</g>
<g>
	<g>
		<circle cx="358.957" cy="394.463" r="16.696"/>
	</g>
</g>
<g>
</g>
<g>
</g>
<g>
</g>
<g>
</g>
<g>
</g>
<g>
</g>
<g>
</g>
<g>
</g>
<g>
</g>
<g>
</g>
<g>
</g>
<g>
</g>
<g>
</g>
<g>
</g>
<g>
</g>
</svg>
