<?xml version="1.0" encoding="iso-8859-1"?>
<!-- Generator: Adobe Illustrator 19.0.0, SVG Export Plug-In . SVG Version: 6.00 Build 0)  -->
<svg xmlns="http://www.w3.org/2000/svg" xmlns:xlink="http://www.w3.org/1999/xlink" version="1.1" id="Layer_1" x="0px" y="0px" viewBox="0 0 512 512" style="enable-background:new 0 0 512 512;" xml:space="preserve">
<g>
	<g>
		<path d="M458.004,190.965l18.62-19.493h17.541c9.205,0,16.668-7.463,16.668-16.668s-7.463-16.557-16.668-16.557h-24.669    c-4.553,0-8.909,1.751-12.053,5.044l-18.903,19.79l-16.294-57.453c-8.028-38.47-42.227-66.317-81.584-66.317H172.172    c-39.358,0-73.557,27.847-81.584,66.317l-15.363,54.17l-12.152-15.343c-3.161-3.992-7.974-6.208-13.066-6.208H16.668    C7.463,138.246,0,145.598,0,154.803s7.463,16.668,16.668,16.668h25.276l14.594,18.424C22.314,210.96,0.833,248.26,0.833,289.337    v33.337c0,40.249,28.679,73.921,66.674,81.666v21.503c0,25.832,21.016,46.847,46.847,46.847h39.653    c25.832,0,46.847-21.016,46.847-46.847v-19.827h111.123v27.952c0,21.351,17.371,38.722,38.722,38.722h55.904    c21.351,0,38.722-17.371,38.722-38.722v-29.63C483.321,396.595,512,362.922,512,322.673v-33.337    C512,248.43,490.765,211.915,458.004,190.965z M122.829,114.125c0.12-0.422,0.223-0.849,0.309-1.279    c4.658-23.293,25.281-40.199,49.034-40.199h168.489c23.754,0,44.376,16.906,49.034,40.199c0.086,0.431,0.189,0.857,0.309,1.279    l16.76,59.094c-3.766-0.368-7.582-0.561-11.443-0.561h-42.393v-17.853c0-27.573-22.432-50.005-50.005-50.005    s-49.894,22.432-49.894,50.005v17.853H117.513c-3.86,0-7.677,0.193-11.443,0.561L122.829,114.125z M319.701,154.803v17.853    h-33.448v-17.853c0-9.191,7.477-16.668,16.668-16.668S319.701,145.612,319.701,154.803z M34.059,289.337    c0-5.707,0.69-11.281,1.788-16.669h14.992c21.731,0,40.27,13.934,47.15,33.337H34.059V289.337z M167.518,425.843    c0,7.45-6.061,13.51-13.51,13.51h-39.653c-7.45,0-13.621-6.061-13.621-13.51v-19.827c7.66,0,59.599,0,66.785,0V425.843z     M170.374,372.679c6.88-19.403,25.418-33.337,47.15-33.337h77.786c21.731,0,40.27,13.934,47.15,33.337    C331.763,372.679,175.76,372.679,170.374,372.679z M411.989,433.968c0,2.969-2.416,5.385-5.385,5.385H350.7    c-2.969,0-5.496-2.416-5.496-5.385v-27.952c7.3,0,58.302,0,66.785,0V433.968z M428.658,372.679h-51.683    c-7.743-37.995-41.417-66.674-81.666-66.674h-77.786c-40.248,0-73.921,28.679-81.666,66.674H84.176    c-21.73,0-40.258-13.936-47.138-33.337h80.475c9.205,0,16.668-7.463,16.668-16.668c0-45.941-37.363-83.317-83.298-83.341    c15.221-20.23,39.421-33.338,66.629-33.338h277.808c27.207,0,51.409,13.108,66.629,33.338    c-45.935,0.024-83.298,37.401-83.298,83.341c0,9.205,7.463,16.668,16.668,16.668h80.475    C468.914,358.743,450.387,372.679,428.658,372.679z M478.663,306.005h-63.818c6.88-19.403,25.418-33.337,47.15-33.337h14.992    c1.098,5.387,1.677,10.961,1.677,16.669V306.005z"/>
	</g>
</g>
<g>
	<g>
		<path d="M328.647,239.332h-144.46c-9.205,0-16.668,7.463-16.668,16.668s7.463,16.668,16.668,16.668h144.46    c9.205,0,16.668-7.463,16.668-16.668S337.852,239.332,328.647,239.332z"/>
	</g>
</g>
<g>
</g>
<g>
</g>
<g>
</g>
<g>
</g>
<g>
</g>
<g>
</g>
<g>
</g>
<g>
</g>
<g>
</g>
<g>
</g>
<g>
</g>
<g>
</g>
<g>
</g>
<g>
</g>
<g>
</g>
</svg>
