<?xml version="1.0" encoding="iso-8859-1"?>
<!-- Generator: Adobe Illustrator 19.0.0, SVG Export Plug-In . SVG Version: 6.00 Build 0)  -->
<svg xmlns="http://www.w3.org/2000/svg" xmlns:xlink="http://www.w3.org/1999/xlink" version="1.1" id="Layer_1" x="0px" y="0px" viewBox="0 0 512 512" style="enable-background:new 0 0 512 512;" xml:space="preserve">
<g>
	<g>
		<path d="M159.803,377.423c-36.334-46.178-52.586-80.86-57.9-123.475c-1.137-9.126-9.454-15.602-18.583-14.463    c-9.126,1.138-15.601,9.458-14.463,18.583c6.087,48.824,25.024,89.586,65.417,140.761c9.1,11.397,25.111,8.139,29.442-4.053    C165.871,388.709,164.335,382.038,159.803,377.423z"/>
	</g>
</g>
<g>
	<g>
		<path d="M439.02,206.057c-9.152,0-18.694,1.275-28.306,3.735v-20.386c0-9.196-7.455-16.651-16.651-16.651h-16.651v-8.789    c0-25.485-7.082-50.416-20.481-72.096c-13.399-21.68-32.53-39.163-55.326-50.561c-11.045-5.525-24.097,2.516-24.097,14.892    c0,27.543-22.408,49.952-49.952,49.952H116.554c-40.204,0-73.842,28.648-81.578,66.602H16.651C7.455,172.756,0,180.211,0,189.406    v29.645c0,44.337,6.966,83.615,21.294,120.074c12.852,32.704,32.123,64.765,60.648,100.899    c16.275,20.618,40.353,32.442,66.061,32.442c69.424-0.001,45.245-0.001,114.71,0c25.707,0,49.785-11.824,66.06-32.442    c9.753-12.355,18.4-24.227,26.104-35.818c5.587,1.088,11.443,1.656,17.543,1.656c53.005,0,110.993-41.167,132.014-93.719    C526.989,255.749,497.355,206.057,439.02,206.057z M116.554,139.454h111.004c36.293,0,67.234-23.34,78.603-55.801    c23.829,19.44,37.951,48.593,37.951,80.312v8.789H69.455C76.327,153.373,94.846,139.454,116.554,139.454z M333.843,375.464    c-0.278,0.405-0.535,0.826-0.778,1.26c-9.068,14.494-19.286,28.549-30.431,42.668c-9.92,12.567-24.47,19.774-39.92,19.774    c-68.563-0.001-45.419-0.001-114.711,0c-15.451,0-30.001-7.208-39.921-19.774c-44.886-56.86-74.78-112.688-74.78-200.341v-12.994    c12.27,0,332.296,0,344.112,0v12.994C377.413,284.31,360.835,331.926,333.843,375.464z M473.513,299.776    c-15.581,38.953-60.901,71.915-99.599,72.746c5.982-11.181,11.129-22.254,15.508-33.398c11.487-29.231,18.23-60.278,20.457-94.286    c10.027-3.598,19.957-5.481,29.143-5.481C474.645,239.358,486.832,266.477,473.513,299.776z"/>
	</g>
</g>
<g>
</g>
<g>
</g>
<g>
</g>
<g>
</g>
<g>
</g>
<g>
</g>
<g>
</g>
<g>
</g>
<g>
</g>
<g>
</g>
<g>
</g>
<g>
</g>
<g>
</g>
<g>
</g>
<g>
</g>
</svg>
