<?xml version="1.0" encoding="iso-8859-1"?>
<!-- Generator: Adobe Illustrator 19.0.0, SVG Export Plug-In . SVG Version: 6.00 Build 0)  -->
<svg xmlns="http://www.w3.org/2000/svg" xmlns:xlink="http://www.w3.org/1999/xlink" version="1.1" id="Layer_1" x="0px" y="0px" viewBox="0 0 512 512" style="enable-background:new 0 0 512 512;" xml:space="preserve">
<g>
	<g>
		<path d="M406.261,0H105.739C68.915,0,38.957,29.959,38.957,66.783c0,36.824,29.959,66.783,66.783,66.783h100.174v50.087    c0,9.22,7.475,16.696,16.696,16.696h16.696v34.203l-24.162,12.081c-5.656,2.829-9.229,8.609-9.229,14.934    c0,6.324,3.573,12.104,9.229,14.934l36.916,18.458l-36.916,18.458c-5.656,2.829-9.229,8.609-9.229,14.934    c0,6.324,3.573,12.104,9.229,14.934l36.916,18.458l-36.916,18.458c-5.656,2.829-9.229,8.609-9.229,14.934    s3.573,12.104,9.229,14.934l36.915,18.458l-3.524,1.762c-5.656,2.828-9.229,8.609-9.229,14.934v50.087    c0,9.22,7.475,16.696,16.696,16.696c9.22,0,16.696-7.475,16.696-16.696v-39.769l24.162-12.081    c5.656-2.828,9.229-8.608,9.229-14.933s-3.573-12.104-9.229-14.934l-36.916-18.458l36.916-18.458    c5.656-2.829,9.229-8.609,9.229-14.934s-3.573-12.104-9.229-14.934l-36.916-18.458l36.916-18.458    c5.656-2.829,9.229-8.609,9.229-14.934c0-6.324-3.573-12.104-9.229-14.934l-36.916-18.458l3.525-1.762    c5.656-2.829,9.229-8.609,9.229-14.934v-44.522h16.696c9.22,0,16.696-7.475,16.696-16.696v-50.087h100.174    c36.824,0,66.783-29.959,66.783-66.783C473.043,29.959,443.085,0,406.261,0z M105.739,100.174    c-18.412,0-33.391-14.979-33.391-33.391c0-18.412,14.979-33.391,33.391-33.391V100.174z M272.696,166.957h-33.391v-33.391h33.391    V166.957z M372.87,100.174c-12.474,0-221.265,0-233.739,0V33.391H372.87V100.174z M406.261,100.174V33.391    c18.412,0,33.391,14.979,33.391,33.391C439.652,85.195,424.673,100.174,406.261,100.174z"/>
	</g>
</g>
<g>
</g>
<g>
</g>
<g>
</g>
<g>
</g>
<g>
</g>
<g>
</g>
<g>
</g>
<g>
</g>
<g>
</g>
<g>
</g>
<g>
</g>
<g>
</g>
<g>
</g>
<g>
</g>
<g>
</g>
</svg>
