<?xml version="1.0" encoding="iso-8859-1"?>
<!-- Generator: Adobe Illustrator 19.0.0, SVG Export Plug-In . SVG Version: 6.00 Build 0)  -->
<svg xmlns="http://www.w3.org/2000/svg" xmlns:xlink="http://www.w3.org/1999/xlink" version="1.1" id="Layer_1" x="0px" y="0px" viewBox="0 0 512 512" style="enable-background:new 0 0 512 512;" xml:space="preserve">
<g>
	<g>
		<path d="M461.913,172.522h-244.87h-12.754c-6.364,0-12.087-3.536-14.934-9.229l-48.324-96.649    c-8.539-17.077-25.705-27.687-44.799-27.687H16.696C7.475,38.957,0,46.432,0,55.652c0,17.589,0,383.252,0,400.696    c0,9.22,7.475,16.696,16.696,16.696c29.52,0,464.91,0,478.609,0c9.22,0,16.696-7.475,16.696-16.696c0-10.232,0-221.338,0-233.739    C512,194.991,489.531,172.522,461.913,172.522z M33.391,72.348h62.841c6.364,0,12.086,3.536,14.934,9.229l45.471,90.945h-56.464    v-16.696c0-27.618-22.469-50.087-50.087-50.087c-5.852,0-11.47,1.018-16.696,2.872V72.348z M33.391,155.826    c0-9.206,7.49-16.696,16.696-16.696s16.696,7.49,16.696,16.696v16.696H33.391V155.826z M33.391,205.913    c3.128,0,190.298,0,196.407,0c6.364,0,12.087,3.536,14.934,9.229l45.471,90.945h-56.464v-16.696    c0-27.618-22.469-50.087-50.087-50.087c-27.618,0-50.087,22.469-50.087,50.087v16.696h-33.391v-16.696    c0-27.618-22.469-50.087-50.087-50.087c-5.852,0-11.47,1.018-16.696,2.872V205.913z M200.348,289.391v16.696h-33.391v-16.696    c0-9.206,7.49-16.696,16.696-16.696C192.858,272.696,200.348,280.185,200.348,289.391z M33.391,289.391    c0-9.206,7.49-16.696,16.696-16.696s16.696,7.49,16.696,16.696v16.696H33.391V289.391z M66.783,439.652H33.391v-16.696    c0-9.206,7.49-16.696,16.696-16.696s16.696,7.49,16.696,16.696V439.652z M200.348,439.652h-33.391v-16.696    c0-9.206,7.49-16.696,16.696-16.696c9.206,0,16.696,7.49,16.696,16.696V439.652z M345.043,439.652h-33.391v-16.696    c0-9.206,7.49-16.696,16.696-16.696s16.696,7.49,16.696,16.696V439.652z M478.609,439.652h-33.391v-16.696    c0-9.206,7.49-16.696,16.696-16.696s16.696,7.49,16.696,16.696V439.652z M478.609,375.741c-5.226-1.853-10.843-2.872-16.696-2.872    c-27.618,0-50.087,22.469-50.087,50.087v16.696h-33.391v-16.696c0-27.618-22.469-50.087-50.087-50.087    s-50.087,22.469-50.087,50.087v16.696h-44.522v-16.696c0-27.618-22.469-50.087-50.087-50.087    c-27.618,0-50.087,22.469-50.087,50.087v16.696h-33.391v-16.696c0-27.618-22.469-50.087-50.087-50.087    c-5.852,0-11.47,1.018-16.696,2.872v-36.263c19.256,0,433.527,0,445.217,0V375.741z M314.51,280.037    c3.045-4.488,8.189-7.342,13.837-7.342c9.206,0,16.696,7.49,16.696,16.696v16.696h-7.189c-6.364,0-12.087-3.536-14.934-9.229    L314.51,280.037z M478.609,306.087h-33.391v-16.696c0-9.206,7.49-16.696,16.696-16.696s16.696,7.49,16.696,16.696V306.087z     M478.609,242.176c-5.226-1.853-10.843-2.872-16.696-2.872c-27.618,0-50.087,22.469-50.087,50.087v16.696h-33.391v-16.696    c0-27.618-22.469-50.087-50.087-50.087c-10.842,0-21.061,3.518-29.412,9.582l-21.486-42.974h184.464    c9.206,0,16.696,7.49,16.696,16.696V242.176z"/>
	</g>
</g>
<g>
</g>
<g>
</g>
<g>
</g>
<g>
</g>
<g>
</g>
<g>
</g>
<g>
</g>
<g>
</g>
<g>
</g>
<g>
</g>
<g>
</g>
<g>
</g>
<g>
</g>
<g>
</g>
<g>
</g>
</svg>
