<?xml version="1.0" encoding="iso-8859-1"?>
<!-- Generator: Adobe Illustrator 19.0.0, SVG Export Plug-In . SVG Version: 6.00 Build 0)  -->
<svg xmlns="http://www.w3.org/2000/svg" xmlns:xlink="http://www.w3.org/1999/xlink" version="1.1" id="Layer_1" x="0px" y="0px" viewBox="0 0 512 512" style="enable-background:new 0 0 512 512;" xml:space="preserve">
<g>
	<g>
		<circle cx="353.391" cy="237.213" r="16.696"/>
	</g>
</g>
<g>
	<g>
		<circle cx="150.261" cy="237.213" r="16.696"/>
	</g>
</g>
<g>
	<g>
		<path d="M261.565,153.739c-27.618,0-50.087,22.469-50.087,50.087c0,27.618,22.469,50.087,50.087,50.087    c27.618,0,50.087-22.469,50.087-50.087C311.652,176.208,289.183,153.739,261.565,153.739z M261.565,220.521    c-9.206,0-16.696-7.49-16.696-16.696c0-9.206,7.49-16.696,16.696-16.696c9.206,0,16.696,7.49,16.696,16.696    C278.261,213.032,270.771,220.521,261.565,220.521z"/>
	</g>
</g>
<g>
	<g>
		<path d="M281.296,25.162c-16.696-3.157-34.285,3.105-45.973,16.345L13.213,283.119C10.81,285.732,0,299.534,0,305.113    c0,1.496,0,9.417,0,38.539c0,24.166,19.661,43.826,43.826,43.826h56.348v50.087c0,27.624,22.349,50.078,50.15,50.078    c28.854,0,50.023-23.806,50.023-51.713v-17.987c5.374,1.958,10.941,2.927,16.744,2.927c21.898-0.001,40.245-13.942,47.141-33.392    h185.159c34.522,0,62.609-28.087,62.609-62.609V304C512,167.713,414.975,50.445,281.296,25.162z M260.031,63.97    c0.092-0.1,0.184-0.201,0.273-0.304c3.872-4.424,9.678-6.656,14.787-5.692c112.434,21.264,195.475,116.301,202.966,229.331    h-33.475c-8.289-108.457-96.646-194.865-205.92-200.091L260.031,63.97z M100.174,354.087H43.826    c-5.753,0-10.435-4.681-10.435-10.435v-21.844h50.087c9.206,0,16.696,7.615,16.696,16.975V354.087z M233.739,337.391v33.391    c0,9.508-7.923,17.18-17.618,16.671c-8.697-0.455-15.773-8.782-15.773-18.56v-63.5v-1.392c0-9.22-7.475-16.696-16.696-16.696    c-9.22,0-16.696,7.475-16.696,16.696v1.392v63.5v67.038c0,8.898-5.777,16.65-13.437,18.034    c-10.932,1.972-19.955-6.311-19.955-16.4v-98.781c0-27.773-22.469-50.366-50.087-50.366H53.699l153.374-166.84    c6.975-0.8,14.054-1.23,21.101-1.23c95.638,0,174.422,73.486,182.885,166.956H283.826    C256.208,287.304,233.739,309.773,233.739,337.391z M478.609,324.869c0,16.11-13.107,29.217-29.217,29.217H267.13v-16.696    c0-9.206,7.49-16.696,16.696-16.696h194.783V324.869z"/>
	</g>
</g>
<g>
</g>
<g>
</g>
<g>
</g>
<g>
</g>
<g>
</g>
<g>
</g>
<g>
</g>
<g>
</g>
<g>
</g>
<g>
</g>
<g>
</g>
<g>
</g>
<g>
</g>
<g>
</g>
<g>
</g>
</svg>
