<?xml version="1.0" encoding="iso-8859-1"?>
<!-- Generator: Adobe Illustrator 19.0.0, SVG Export Plug-In . SVG Version: 6.00 Build 0)  -->
<svg xmlns="http://www.w3.org/2000/svg" xmlns:xlink="http://www.w3.org/1999/xlink" version="1.1" id="Layer_1" x="0px" y="0px" viewBox="0 0 512 512" style="enable-background:new 0 0 512 512;" xml:space="preserve">
<g>
	<g>
		<path d="M495.304,33.391H317.172C301.926,13.129,277.687,0,250.435,0C242.631,0,55.197,0,50.087,0    c-9.22,0-16.696,7.475-16.696,16.696s7.475,16.696,16.696,16.696h50.087v33.391H50.087c-9.22,0-16.696,7.475-16.696,16.696    s7.475,16.696,16.696,16.696h50.087v33.391H50.087c-9.22,0-16.696,7.475-16.696,16.696s7.475,16.696,16.696,16.696h50.087v119.899    C41.873,307.529,0,363.223,0,428.522C0,474.552,37.448,512,83.478,512h333.913c46.03,0,83.478-37.448,83.478-83.478    c0-119.678-97.366-217.043-217.043-217.043c-5.593,0-11.161,0.226-16.696,0.654v-46.856c20.33-4.143,37.994-15.699,50.041-31.712    h178.133c9.22,0,16.696-7.475,16.696-16.696V50.087C512,40.867,504.525,33.391,495.304,33.391z M200.348,33.391h33.391v183.984    c-11.425,2.72-22.593,6.354-33.391,10.868V33.391z M133.565,33.391h33.391v212.36c-11.888,7.611-23.085,16.397-33.391,26.293    C133.565,260.646,133.565,42.566,133.565,33.391z M150.261,311.652c58.773,0,107.546,43.614,115.672,100.174H232.06    c-7.756-38.057-41.485-66.783-81.799-66.783c-40.313,0-74.042,28.725-81.799,66.783H34.589    C42.763,354.935,91.814,311.652,150.261,311.652z M283.826,345.043c-2.813,0-5.618,0.147-8.406,0.429    c-7.106-10.674-15.539-20.39-25.062-28.912c10.808-3.233,22.087-4.906,33.469-4.906c58.773,0,107.546,43.613,115.672,100.174    h-33.873C357.868,373.769,324.139,345.043,283.826,345.043z M331.041,411.826h-31.452c-1.257-11.317-3.774-22.259-7.412-32.681    C310.243,382.191,325.05,394.935,331.041,411.826z M197.476,411.826h-94.431c6.892-19.433,25.45-33.391,47.215-33.391    S190.584,392.393,197.476,411.826z M417.391,478.609H83.478c-21.767,0-40.336-14.068-47.226-33.503h428.366    C457.727,464.541,439.158,478.609,417.391,478.609z M283.826,244.87c95.638,0,174.422,73.486,182.885,166.957h-33.557    c-8.332-75.026-72.117-133.565-149.328-133.565c-23.217,0-46.116,5.403-66.786,15.683c-12.926-6.44-26.901-11.07-41.598-13.561    C206.669,257.517,244.57,244.87,283.826,244.87z M267.13,130.694V36.263c19.433,6.892,33.391,25.45,33.391,47.215    S286.563,123.802,267.13,130.694z M478.609,100.174H332.233c1.1-5.396,1.68-10.979,1.68-16.696s-0.58-11.3-1.68-16.696h146.375    V100.174z"/>
	</g>
</g>
<g>
</g>
<g>
</g>
<g>
</g>
<g>
</g>
<g>
</g>
<g>
</g>
<g>
</g>
<g>
</g>
<g>
</g>
<g>
</g>
<g>
</g>
<g>
</g>
<g>
</g>
<g>
</g>
<g>
</g>
</svg>
