<?xml version="1.0" encoding="iso-8859-1"?>
<!-- Generator: Adobe Illustrator 19.0.0, SVG Export Plug-In . SVG Version: 6.00 Build 0)  -->
<svg xmlns="http://www.w3.org/2000/svg" xmlns:xlink="http://www.w3.org/1999/xlink" version="1.1" id="Layer_1" x="0px" y="0px" viewBox="0 0 511.999 511.999" style="enable-background:new 0 0 511.999 511.999;" xml:space="preserve">
<g>
	<g>
		<path d="M473.043,294.957c-0.002-92.092-58.799-129.576-119.021-160.076c-26.881-13.613-47.937-50.613-47.937-84.236v-0.558    C306.085,22.469,283.616,0,255.998,0c-27.618,0-50.087,22.469-50.087,50.087v0.548c0,33.617-21.084,70.636-48.002,84.279    c-59.975,30.403-118.563,67.732-118.951,159.1c-0.384,89.926,71.191,167.747,166.49,181.016c4.125,0.574,8.229,1.075,12.313,1.509    l-6.96,6.96c-6.52,6.519-6.52,17.091,0,23.611c6.519,6.519,17.091,6.519,23.611,0l21.586-21.586l21.586,21.586    c6.52,6.52,17.091,6.52,23.611,0c6.52-6.519,6.52-17.091,0-23.611l-7.119-7.119C399.511,463.782,473.043,398.909,473.043,294.957z     M338.497,432.477c22.353-32.302,34.371-79.671,34.371-137.521c0-9.22-7.475-16.696-16.696-16.696    c-9.22,0-16.696,7.475-16.696,16.696c0,55.032-14.145,132.922-66.783,147.902V328.348c0-9.22-7.475-16.696-16.696-16.696    c-9.22,0-16.696,7.475-16.696,16.696v114.805c-21.605-5.156-36.678-26.78-46.133-46.701    c-13.397-28.222-20.73-64.565-20.649-102.331c0.02-9.22-7.44-16.712-16.66-16.731c-0.012,0-0.024,0-0.037,0    c-9.204,0-16.676,7.452-16.696,16.66c-0.119,55.649,13.935,105.827,36.75,139.498c-61.138-21.956-103.795-77.156-103.53-139.391    c0.281-66.076,35.593-96.476,100.656-129.459c39.228-19.88,66.297-69.286,66.297-114.062v-0.548    c0-9.206,7.49-16.696,16.696-16.696c9.206,0,16.696,7.49,16.696,16.696v0.558c0,44.208,26.576,93.939,66.242,114.025    c65.319,33.081,100.715,63.642,100.715,130.287C439.649,364.131,401.299,410.886,338.497,432.477z"/>
	</g>
</g>
<g>
</g>
<g>
</g>
<g>
</g>
<g>
</g>
<g>
</g>
<g>
</g>
<g>
</g>
<g>
</g>
<g>
</g>
<g>
</g>
<g>
</g>
<g>
</g>
<g>
</g>
<g>
</g>
<g>
</g>
</svg>
