<?xml version="1.0" encoding="iso-8859-1"?>
<!-- Generator: Adobe Illustrator 19.0.0, SVG Export Plug-In . SVG Version: 6.00 Build 0)  -->
<svg xmlns="http://www.w3.org/2000/svg" xmlns:xlink="http://www.w3.org/1999/xlink" version="1.1" id="Layer_1" x="0px" y="0px" viewBox="0 0 512.002 512.002" style="enable-background:new 0 0 512.002 512.002;" xml:space="preserve">
<g>
	<g>
		<path d="M289.392,166.956h-16.696V150.26c0-9.22-7.475-16.695-16.695-16.695c-9.22,0-16.695,7.475-16.695,16.695v16.695H222.61    c-9.22,0-16.695,7.475-16.695,16.695c0,9.22,7.475,16.695,16.695,16.695h16.695v83.478c0,9.22,7.475,16.695,16.695,16.695    c9.22,0,16.696-7.475,16.696-16.695v-83.478h16.695c9.22,0,16.695-7.475,16.695-16.695    C306.088,174.431,298.613,166.956,289.392,166.956z"/>
	</g>
</g>
<g>
	<g>
		<path d="M400.164,99.152L265.705,3.11c-5.806-4.146-13.604-4.146-19.409,0L111.838,99.152    c-64.986,46.419-92.082,129.581-66.877,205.384l61.55,195.773c3.081,9.798,14.207,14.518,23.394,9.925    c78.958-39.477,173.236-39.479,252.196,0c9.148,4.578,20.301-0.089,23.394-9.925l61.549-195.773    C492.238,228.754,465.168,145.583,400.164,99.152z M172.524,96.839L172.524,96.839l83.478-59.626l83.478,59.626v292.766    c-27.427-6.145-55.514-9.309-83.478-9.309s-56.05,3.165-83.478,9.309V96.839z M76.772,294.386    c-0.029-0.091-0.058-0.181-0.089-0.272c-20.744-62.232,1.183-129.662,54.563-167.791l7.886-5.633v277.977    c-8.972,2.874-17.833,6.079-26.556,9.602L76.772,294.386z M379.327,472.2c-38.872-16.481-81.121-25.125-123.326-25.125    c-42.204,0-84.454,8.645-123.325,25.125l-10.052-31.972c42.125-17.394,87.932-26.54,133.377-26.54    c45.445,0,91.252,9.146,133.377,26.54L379.327,472.2z M435.318,294.114c-0.03,0.09-0.06,0.181-0.089,0.272l-35.804,113.883    c-8.723-3.523-17.583-6.728-26.556-9.601V120.69l7.886,5.633C434.135,164.452,456.063,231.882,435.318,294.114z"/>
	</g>
</g>
<g>
</g>
<g>
</g>
<g>
</g>
<g>
</g>
<g>
</g>
<g>
</g>
<g>
</g>
<g>
</g>
<g>
</g>
<g>
</g>
<g>
</g>
<g>
</g>
<g>
</g>
<g>
</g>
<g>
</g>
</svg>
