<?xml version="1.0" encoding="iso-8859-1"?>
<!-- Generator: Adobe Illustrator 19.0.0, SVG Export Plug-In . SVG Version: 6.00 Build 0)  -->
<svg xmlns="http://www.w3.org/2000/svg" xmlns:xlink="http://www.w3.org/1999/xlink" version="1.1" id="Layer_1" x="0px" y="0px" viewBox="0 0 512 512" style="enable-background:new 0 0 512 512;" xml:space="preserve">
<g>
	<g>
		<path d="M473.044,200.348h16.696c9.22,0,16.696-7.475,16.696-16.696v-33.391c0-5.992-3.211-11.523-8.412-14.496L264.283,2.2    c-5.132-2.933-11.433-2.933-16.567,0L13.978,135.765c-5.202,2.973-8.412,8.505-8.412,14.496v33.391    c0,9.22,7.475,16.696,16.696,16.696h16.696v50.087v167.041c-19.724,9.395-33.391,29.521-33.391,52.785v25.043    c0,9.22,7.475,16.696,16.696,16.696h467.478c9.22,0,16.696-7.475,16.696-16.696v-25.043c0-23.263-13.667-43.389-33.391-52.785    V250.435V200.348z M473.044,478.609H38.957v-8.348c0-13.808,11.234-25.043,25.043-25.043c15.123,0,364.918,0,384,0    c13.81,0,25.043,11.235,25.043,25.043V478.609z M72.348,233.739v-33.391h367.304v33.391    C432.003,233.739,77.133,233.739,72.348,233.739z M439.652,267.131v144.696h-33.391V267.131H439.652z M372.87,267.131v144.696    h-66.783V267.131H372.87z M272.696,267.131v144.696h-33.391V267.131H272.696z M205.913,267.131v144.696h-66.783V267.131H205.913z     M105.739,267.131v144.696H72.348V267.131H105.739z M38.957,166.957v-7.007L256,35.925L473.044,159.95v7.007    C453.791,166.957,74.277,166.957,38.957,166.957z"/>
	</g>
</g>
<g>
	<g>
		<path d="M289.391,100.174h-66.783c-9.22,0-16.696,7.474-16.696,16.696c0,9.22,7.475,16.696,16.696,16.696h66.783    c9.22,0,16.696-7.475,16.696-16.696S298.612,100.174,289.391,100.174z"/>
	</g>
</g>
<g>
</g>
<g>
</g>
<g>
</g>
<g>
</g>
<g>
</g>
<g>
</g>
<g>
</g>
<g>
</g>
<g>
</g>
<g>
</g>
<g>
</g>
<g>
</g>
<g>
</g>
<g>
</g>
<g>
</g>
</svg>
