<?xml version="1.0" encoding="iso-8859-1"?>
<!-- Generator: Adobe Illustrator 19.0.0, SVG Export Plug-In . SVG Version: 6.00 Build 0)  -->
<svg xmlns="http://www.w3.org/2000/svg" xmlns:xlink="http://www.w3.org/1999/xlink" version="1.1" id="Layer_1" x="0px" y="0px" viewBox="0 0 512 512" style="enable-background:new 0 0 512 512;" xml:space="preserve">
<g>
	<g>
		<path d="M250.435,246.261v-26.524c19.433-6.892,33.391-25.45,33.391-47.215c0-27.618-22.469-50.087-50.087-50.087H100.174    c-27.618,0-50.087,22.469-50.087,50.087c0,21.766,13.959,40.323,33.391,47.215v26.524C36.162,254.232,0,295.494,0,345.043v116.87    C0,489.531,22.469,512,50.087,512h233.739c27.618,0,50.087-22.469,50.087-50.087v-116.87    C333.913,295.494,297.751,254.232,250.435,246.261z M100.174,155.826h133.565c9.206,0,16.696,7.49,16.696,16.696    c0,9.206-7.49,16.696-16.696,16.696H100.174c-9.206,0-16.696-7.49-16.696-16.696C83.478,163.316,90.968,155.826,100.174,155.826z     M300.522,461.913c0,9.206-7.49,16.696-16.696,16.696H50.087c-9.206,0-16.696-7.49-16.696-16.696v-83.478h267.13V461.913z     M33.391,345.043c0-36.824,29.959-66.783,66.783-66.783c9.22,0,16.696-7.475,16.696-16.696v-38.957h100.174v38.957    c0,9.22,7.475,16.696,16.696,16.696c36.824,0,66.783,29.959,66.783,66.783H33.391z"/>
	</g>
</g>
<g>
	<g>
		<path d="M441.482,6.17C438.311,2.266,433.55,0,428.522,0s-9.789,2.266-12.96,6.17c-2.878,3.546-70.518,88.045-70.518,194.178    c0,93.131,52.076,169.596,66.783,189.332v105.624c0,9.22,7.475,16.696,16.696,16.696s16.696-7.475,16.696-16.696V389.68    C459.924,369.943,512,293.478,512,200.348C512,94.215,444.36,9.716,441.482,6.17z M411.826,326.007    c-16.208-31.438-33.057-75.716-33.371-124.289l33.371,33.371V326.007z M428.522,100.174c-9.22,0-16.696,7.475-16.696,16.696    v70.998l-27.5-27.5c-0.621-0.621-1.29-1.165-1.978-1.668c9.028-49.132,31.667-90.405,46.174-112.972    c14.487,22.538,37.079,63.716,46.133,112.746c-0.801,0.558-1.572,1.18-2.286,1.894l-27.152,27.152V116.87    C445.217,107.649,437.742,100.174,428.522,100.174z M445.217,234.741l33.377-33.377c-0.234,48.716-17.13,93.132-33.377,124.644    V234.741z"/>
	</g>
</g>
<g>
</g>
<g>
</g>
<g>
</g>
<g>
</g>
<g>
</g>
<g>
</g>
<g>
</g>
<g>
</g>
<g>
</g>
<g>
</g>
<g>
</g>
<g>
</g>
<g>
</g>
<g>
</g>
<g>
</g>
</svg>
