<?xml version="1.0" encoding="iso-8859-1"?>
<!-- Generator: Adobe Illustrator 19.0.0, SVG Export Plug-In . SVG Version: 6.00 Build 0)  -->
<svg xmlns="http://www.w3.org/2000/svg" xmlns:xlink="http://www.w3.org/1999/xlink" version="1.1" id="Layer_1" x="0px" y="0px" viewBox="0 0 512 512" style="enable-background:new 0 0 512 512;" xml:space="preserve">
<g>
	<g>
		<path d="M454.495,222.947c-22.173-31.52-52.1-61.906-87.19-77.916v-44.857H384c9.22,0,16.696-7.475,16.696-16.696    S393.22,66.783,384,66.783h-16.696V50.087C367.304,22.469,344.835,0,317.217,0S267.13,22.469,267.13,50.087v16.696h-68.752    C189.103,28.071,148.077,0,100.174,0C45.992,0,0,36.133,0,83.478c0,47.369,46.018,83.478,100.174,83.478    c48.451,0,89.03-28.492,98.205-66.783h68.752v44.857c-35.09,16.01-65.017,46.396-87.19,77.916    C144.47,273.373,122.435,335.086,122.435,384c0,48.903,21.454,84.295,63.767,105.199C217.259,504.542,260.115,512,317.217,512    c57.102,0,99.958-7.458,131.015-22.801C490.546,468.295,512,432.903,512,384C512,335.086,489.965,273.374,454.495,222.947z     M100.174,133.565c-36.824,0-66.783-22.469-66.783-50.087c0-27.618,29.959-50.087,66.783-50.087    c36.824,0,66.783,22.469,66.783,50.087C166.957,111.096,136.998,133.565,100.174,133.565z M427.183,242.158    c15.792,22.451,28.752,47.779,37.716,72.733c-12.954-0.429-48.784,20.468-130.985-25.869V168.826    C365.471,175.732,398.654,201.6,427.183,242.158z M300.522,50.087c0-9.206,7.49-16.696,16.696-16.696    c9.206,0,16.696,7.49,16.696,16.696v83.478h-33.391V50.087z M300.522,168.826v98.805c-32.03-19.407-60.837-29.99-88.213-32.425    C239.662,198.652,270.809,175.328,300.522,168.826z M317.217,478.609c-111.616,0-161.391-29.178-161.391-94.609    c0-33.943,13.341-77.087,35.115-115.901c9.71,1.238,43.127-8.242,116.58,44.159c0.058,0.041,0.12,0.076,0.179,0.117    c0.193,0.134,0.392,0.258,0.59,0.384c0.142,0.09,0.279,0.191,0.425,0.277c45.29,26.799,83.139,39.479,120.166,39.476    c13.102,0,26.105-1.588,39.292-4.7c2.098-0.496,4-1.379,5.671-2.539c3.1,13.656,4.764,26.764,4.764,38.727    C478.609,449.43,428.833,478.609,317.217,478.609z"/>
	</g>
</g>
<g>
	<g>
		<path d="M282.888,410.938c-31.983-1.947-50.715-7.411-57.266-16.706c-5.101-7.238-4.973-20.275,0.382-38.748    c2.568-8.855-2.531-18.116-11.386-20.684c-8.857-2.569-18.117,2.53-20.684,11.388c-8.438,29.105-7,51.113,4.395,67.281    c16.726,23.731,51.107,28.886,82.531,30.799c0.345,0.021,0.689,0.03,1.03,0.03c8.757,0,16.11-6.823,16.649-15.682    C299.098,419.414,292.092,411.499,282.888,410.938z"/>
	</g>
</g>
<g>
</g>
<g>
</g>
<g>
</g>
<g>
</g>
<g>
</g>
<g>
</g>
<g>
</g>
<g>
</g>
<g>
</g>
<g>
</g>
<g>
</g>
<g>
</g>
<g>
</g>
<g>
</g>
<g>
</g>
</svg>
