<?xml version="1.0" encoding="iso-8859-1"?>
<!-- Generator: Adobe Illustrator 19.0.0, SVG Export Plug-In . SVG Version: 6.00 Build 0)  -->
<svg xmlns="http://www.w3.org/2000/svg" xmlns:xlink="http://www.w3.org/1999/xlink" version="1.1" id="Layer_1" x="0px" y="0px" viewBox="0 0 512 512" style="enable-background:new 0 0 512 512;" xml:space="preserve">
<g>
	<g>
		<path d="M437.02,74.98C388.667,26.629,324.38,0,256,0S123.333,26.629,74.98,74.98c-100.095,100.096-99.852,262.185,0,362.04    C123.333,485.372,187.62,512,256,512s132.667-26.628,181.02-74.98C536.705,337.334,537.282,175.244,437.02,74.98z     M453.523,153.426c11.125,21.336,18.897,44.683,22.604,69.346l-36.516-26.531L453.523,153.426z M430.103,117.45l-23.368,71.92    l-68.505,22.259l-65.535-47.614V91.985l61.249-44.5C372.02,61.765,405.173,86.188,430.103,117.45z M315.765,236.581    l-22.827,70.259h-73.875l-22.827-70.259L256,193.159L315.765,236.581z M256,33.391c12.399,0,24.559,1.036,36.413,2.994L256,62.841    l-36.413-26.456C231.44,34.428,243.601,33.391,256,33.391z M178.056,47.486l61.249,44.5v72.029l-65.535,47.614l-68.504-22.259    l-23.368-71.92C106.827,86.188,139.98,61.765,178.056,47.486z M58.477,153.426l13.912,42.817l-36.516,26.531    C39.58,198.11,47.352,174.762,58.477,153.426z M70.357,378.701c-21.672-32.681-34.95-71.382-36.742-113.013l61.332-44.561    l68.375,22.217l25.081,77.192l-42.258,58.164H70.357z M97.451,412.091h45.07l13.971,42.998    C134.489,444.047,114.559,429.466,97.451,412.091z M315.372,470.557c-18.909,5.238-38.817,8.052-59.372,8.052    s-40.462-2.814-59.372-8.052l-23.469-72.229l42.209-58.096h81.263l42.209,58.096L315.372,470.557z M355.507,455.09l13.971-42.998    h45.07C397.441,429.466,377.511,444.047,355.507,455.09z M365.854,378.701l-42.258-58.164l25.081-77.192l68.375-22.217    l61.332,44.561c-1.792,41.632-15.071,80.333-36.743,113.013H365.854z"/>
	</g>
</g>
<g>
</g>
<g>
</g>
<g>
</g>
<g>
</g>
<g>
</g>
<g>
</g>
<g>
</g>
<g>
</g>
<g>
</g>
<g>
</g>
<g>
</g>
<g>
</g>
<g>
</g>
<g>
</g>
<g>
</g>
</svg>
