<?xml version="1.0" encoding="iso-8859-1"?>
<!-- Generator: Adobe Illustrator 19.0.0, SVG Export Plug-In . SVG Version: 6.00 Build 0)  -->
<svg xmlns="http://www.w3.org/2000/svg" xmlns:xlink="http://www.w3.org/1999/xlink" version="1.1" id="Layer_1" x="0px" y="0px" viewBox="0 0 512 512" style="enable-background:new 0 0 512 512;" xml:space="preserve">
<g>
	<g>
		<path d="M438.878,490.277L372.87,281.253v-61.496c1.963-5.881,3.815-11.404,5.547-16.572    c27.323-81.476,27.844-84.961,27.844-186.489c0-9.22-7.475-16.696-16.696-16.696h-66.783c-5.582,0-10.795,2.789-13.892,7.435    L256,86.771L203.109,7.435C200.013,2.789,194.799,0,189.217,0h-66.783c-9.22,0-16.696,7.475-16.696,16.696    c0,103.652,1.544,108.248,27.34,185.011c1.878,5.589,3.898,11.6,6.052,18.051v61.495L73.123,490.277    C69.727,501.033,77.774,512,89.044,512c10.92,0,302.054,0,333.913,0C434.236,512,442.271,501.024,438.878,490.277z     M180.282,33.391l61.826,92.739c6.588,9.883,21.17,9.921,27.784,0l61.826-92.739h41.146    c-0.089,81.595-1.568,86.012-26.105,159.176c-0.843,2.513-1.712,5.104-2.608,7.78H167.847c-1.076-3.211-2.115-6.301-3.115-9.277    c-23.611-70.261-25.454-75.748-25.591-157.679H180.282z M339.478,233.739v33.391H172.522v-33.391H339.478z M353.054,478.609    l-18.1-86.883c-1.88-9.027-10.725-14.82-19.75-12.939c-9.027,1.88-14.82,10.723-12.939,19.75l16.681,80.072h-46.25V395.13    c0-9.22-7.475-16.696-16.696-16.696c-9.22,0-16.696,7.475-16.696,16.696v83.478H188.88l16.682-80.073    c1.881-9.027-3.912-17.869-12.939-19.75c-9.025-1.884-17.869,3.912-19.75,12.939l-18.101,86.884h-42.948l56.238-178.087h175.876    l56.238,178.087H353.054z"/>
	</g>
</g>
<g>
</g>
<g>
</g>
<g>
</g>
<g>
</g>
<g>
</g>
<g>
</g>
<g>
</g>
<g>
</g>
<g>
</g>
<g>
</g>
<g>
</g>
<g>
</g>
<g>
</g>
<g>
</g>
<g>
</g>
</svg>
