<?xml version="1.0" encoding="iso-8859-1"?>
<!-- Generator: Adobe Illustrator 19.0.0, SVG Export Plug-In . SVG Version: 6.00 Build 0)  -->
<svg xmlns="http://www.w3.org/2000/svg" xmlns:xlink="http://www.w3.org/1999/xlink" version="1.1" id="Layer_1" x="0px" y="0px" viewBox="0 0 512 512" style="enable-background:new 0 0 512 512;" xml:space="preserve">
<g>
	<g>
		<path d="M470.312,100.174h-59.867l-61.892-61.892c-3.133-3.131-7.38-4.891-11.807-4.891h-50.087V16.696    c0-9.22-7.475-16.696-16.696-16.696s-16.696,7.475-16.696,16.696v16.696H203.18c-4.428,0-8.675,1.76-11.806,4.891l-61.892,61.892    h-26.476c-2.592,0-5.148,0.603-7.466,1.762l-42.826,21.413c-21.159,10.58-31.93,33.997-26.192,56.948l20.083,80.329    c5.872,23.491,26.884,39.896,51.098,39.896h5.304c9.22,0,16.696-7.475,16.696-16.696c0-9.22-7.475-16.696-16.696-16.696h-5.304    c-8.862,0-16.554-6.005-18.704-14.603l-20.083-80.329c-1.912-7.651,1.677-15.456,8.731-18.983l39.3-19.65h15.307l31.066,186.397    c1.342,8.051,8.307,13.951,16.469,13.951h16.696v33.391h-16.696c-7.373,0-13.873,4.836-15.991,11.898l-33.391,111.304    c-3.21,10.699,4.812,21.493,15.991,21.493c5.38,0,239.568,0,267.13,0c11.168,0,19.204-10.784,15.991-21.493l-33.391-111.304    c-2.118-7.062-8.618-11.898-15.991-11.898h-16.696v-33.391h16.696c8.162,0,15.126-5.9,16.469-13.951l19.936-119.614h0.118    c44.304,0,80.348-36.044,80.348-80.348v-3.13C487.007,107.649,479.532,100.174,470.312,100.174z M210.095,66.783h119.733    l33.391,33.391H176.704L210.095,66.783z M299.911,133.565l-13.044,166.956h-36.942l-13.043-166.956H299.911z M189.021,478.609    h-30.185l23.374-77.913c9.169,0,16.602,0,25.803,0L189.021,478.609z M202.268,300.522c-3.154,0-4.201,0-4.189,0    c-2.802,0-7.266,0-14.148,0l-27.826-166.956h13.683h33.601l13.043,166.956C209.542,300.522,205.073,300.522,202.268,300.522z     M223.391,478.609l18.992-77.913h46.813l18.992,77.913H223.391z M320.05,367.304H219.876v-33.391c12.911,0,88.368,0,100.174,0    V367.304z M357.714,400.696l23.374,77.913h-38.532l-18.992-77.913c6.682,0,9.933,0,11.398,0c0.853,0,1.101,0,1.064,0    C338.099,400.696,343.764,400.696,357.714,400.696z M355.993,300.522c-19.787,0-15.858,0-35.632,0l13.044-166.956h50.414    L355.993,300.522z M412.161,166.63l5.511-33.065h33.947C446.298,151.169,430.896,164.433,412.161,166.63z"/>
	</g>
</g>
<g>
</g>
<g>
</g>
<g>
</g>
<g>
</g>
<g>
</g>
<g>
</g>
<g>
</g>
<g>
</g>
<g>
</g>
<g>
</g>
<g>
</g>
<g>
</g>
<g>
</g>
<g>
</g>
<g>
</g>
</svg>
