<?xml version="1.0" encoding="iso-8859-1"?>
<!-- Generator: Adobe Illustrator 19.0.0, SVG Export Plug-In . SVG Version: 6.00 Build 0)  -->
<svg xmlns="http://www.w3.org/2000/svg" xmlns:xlink="http://www.w3.org/1999/xlink" version="1.1" id="Layer_1" x="0px" y="0px" viewBox="0 0 512 512" style="enable-background:new 0 0 512 512;" xml:space="preserve">
<g>
	<g>
		<path d="M174.547,178.204c0-6.911,0-154.523,0-161.508c0-9.22-7.253-16.696-16.473-16.696H91.292    c-9.22,0-16.696,7.475-16.696,16.696c0,7.048,0,154.627,0,161.508C34.208,197.37,7.814,238.424,7.814,283.826v178.087    C7.814,489.531,30.283,512,57.9,512h133.565c27.618,0,49.864-22.469,49.864-50.087v-33.391V283.826    C241.33,238.425,214.935,197.371,174.547,178.204z M107.765,33.391h33.614v33.391h-33.614V33.391z M208.161,461.913    c0,9.206-7.49,16.696-16.696,16.696H57.9c-9.206,0-16.918-7.49-16.918-16.696V283.826h0c0-35.328,22.587-66.969,55.874-78.732    c6.672-2.359,10.909-8.665,10.909-15.742v-89.178h33.614v89.178c0,7.076,4.46,13.383,11.132,15.742    c27.931,9.873,48.164,33.741,53.954,62.037h-81.781c-9.22,0-16.696,7.475-16.696,16.696v144.696    c0,9.22,7.475,16.696,16.696,16.696h83.478V461.913z M208.161,411.826h-67.005V300.522h67.005V411.826z"/>
	</g>
</g>
<g>
	<g>
		<path d="M458.596,478.609h-50.31V377.225c74.533-10.731,111.727-84.377,89.522-150.993l-23.373-70.121    c-2.273-6.817-8.653-11.417-15.839-11.417H325.032c-7.187,0-13.566,4.598-15.839,11.415l-23.373,70.121    c-22.145,66.43,14.556,140.236,89.297,150.994v101.384h-50.087c-9.22,0-16.696,7.475-16.696,16.696S315.81,512,325.031,512    h133.565c9.22,0,16.696-7.475,16.696-16.696S467.817,478.609,458.596,478.609z M317.497,236.791l19.568-58.704h109.498    l19.568,58.704c2.243,6.729,3.643,13.55,4.277,20.322h-157.19C313.854,250.341,315.254,243.521,317.497,236.791z M391.814,345.042    c-0.006,0-0.011,0.001-0.017,0.001c-33.816-0.007-64.59-19.49-75.282-54.65h150.597c-10.667,35.075-41.381,54.644-75.282,54.65    C391.825,345.043,391.819,345.042,391.814,345.042z"/>
	</g>
</g>
<g>
</g>
<g>
</g>
<g>
</g>
<g>
</g>
<g>
</g>
<g>
</g>
<g>
</g>
<g>
</g>
<g>
</g>
<g>
</g>
<g>
</g>
<g>
</g>
<g>
</g>
<g>
</g>
<g>
</g>
</svg>
